/* XPM */
static char * buildlibrary_xpm[] = {
"16 15 192 2",
"  	c #C0C0C0",
". 	c #C2C1C2",
"+ 	c #C1BCC2",
"@ 	c #AEB3AC",
"# 	c #97AF90",
"$ 	c #95AF8D",
"% 	c #A0B09B",
"& 	c #A4B1A0",
"* 	c #9DB098",
"= 	c #A7B2A3",
"- 	c #BFBCBF",
"; 	c #C3C2C4",
"> 	c #C0C1C1",
", 	c #B4B9B2",
"' 	c #82B275",
") 	c #8AC47A",
"! 	c #A4E095",
"~ 	c #A6E296",
"{ 	c #93D880",
"] 	c #90D57D",
"^ 	c #97DD84",
"/ 	c #84CF70",
"( 	c #8CAC82",
"_ 	c #B1B3B1",
": 	c #C0BEC1",
"< 	c #C0C1C0",
"[ 	c #C5C1C6",
"} 	c #8EAA86",
"| 	c #8DDA78",
"1 	c #C0F0B3",
"2 	c #B9EBAC",
"3 	c #ADE89D",
"4 	c #A4E593",
"5 	c #9CE388",
"6 	c #94E080",
"7 	c #8FE179",
"8 	c #7AD062",
"9 	c #71BE5B",
"0 	c #98B091",
"a 	c #C3C0C4",
"b 	c #C2C2C2",
"c 	c #BDB9BE",
"d 	c #73B062",
"e 	c #9FE48C",
"f 	c #A6E595",
"g 	c #98E185",
"h 	c #90DE7A",
"i 	c #87DC70",
"j 	c #7FDA66",
"k 	c #76D75B",
"l 	c #70D554",
"m 	c #71D756",
"n 	c #5ED63D",
"o 	c #6DB25B",
"p 	c #C3BCC5",
"q 	c #C1C0C1",
"r 	c #C1BEC3",
"s 	c #8FA987",
"t 	c #82D46C",
"u 	c #A1E68E",
"v 	c #90DF7A",
"w 	c #89DE72",
"x 	c #81DB68",
"y 	c #78D95F",
"z 	c #71D855",
"A 	c #69D64B",
"B 	c #62D443",
"C 	c #5CD23C",
"D 	c #4ED22A",
"E 	c #63B34C",
"F 	c #BFB7C0",
"G 	c #C1C1C2",
"H 	c #9CB197",
"I 	c #76C860",
"J 	c #97E582",
"K 	c #8CDF75",
"L 	c #7EDC64",
"M 	c #70D854",
"N 	c #66D648",
"O 	c #61D542",
"P 	c #5DD43D",
"Q 	c #59D338",
"R 	c #55D233",
"S 	c #51D22F",
"T 	c #52D52F",
"U 	c #59C53C",
"V 	c #9DAF97",
"W 	c #C4C1C5",
"X 	c #9EAF99",
"Y 	c #6FCE56",
"Z 	c #80E066",
"` 	c #65D845",
" .	c #50D22B",
"..	c #49D125",
"+.	c #49D225",
"@.	c #4BD226",
"#.	c #4CD328",
"$.	c #4DD429",
"%.	c #4ED42A",
"&.	c #4FD52B",
"*.	c #53D62F",
"=.	c #5ADA37",
"-.	c #80B472",
";.	c #C2BBC4",
">.	c #98B291",
",.	c #5BD23B",
"'.	c #5BDD37",
").	c #55DA32",
"!.	c #58DB35",
"~.	c #5ADC37",
"{.	c #5BDC38",
"].	c #5CDC3A",
"^.	c #5EDE3C",
"/.	c #60DF3D",
"(.	c #61E03E",
"_.	c #62E040",
":.	c #64E142",
"<.	c #69E647",
"[.	c #6ED951",
"}.	c #A0B39B",
"|.	c #87AD7C",
"1.	c #57CE36",
"2.	c #61DA40",
"3.	c #64DD43",
"4.	c #67E046",
"5.	c #6AE448",
"6.	c #6BE54A",
"7.	c #6BE34A",
"8.	c #6BE14A",
"9.	c #6BE14B",
"0.	c #6DE24D",
"a.	c #6FE54F",
"b.	c #70E550",
"c.	c #68D64A",
"d.	c #58C13C",
"e.	c #91AE89",
"f.	c #A2AE9E",
"g.	c #4E9A3A",
"h.	c #469A30",
"i.	c #4B9C36",
"j.	c #4EA536",
"k.	c #58B73F",
"l.	c #6BD54E",
"m.	c #71DD53",
"n.	c #67C54D",
"o.	c #5AB143",
"p.	c #53A63C",
"q.	c #55AA3D",
"r.	c #54A93D",
"s.	c #50973C",
"t.	c #729968",
"u.	c #B5B8B4",
"v.	c #BFBEBF",
"w.	c #8FA28A",
"x.	c #7E9578",
"y.	c #889983",
"z.	c #779170",
"A.	c #6F9065",
"B.	c #63B04F",
"C.	c #75D85B",
"D.	c #62A250",
"E.	c #68945C",
"F.	c #82957C",
"G.	c #76916F",
"H.	c #73906B",
"I.	c #8FA08B",
"J.	c #BFBCC0",
"K.	c #C1C1C1",
"L.	c #C4C2C4",
"M.	c #C5C3C6",
"N.	c #C6C3C6",
"O.	c #BFB9C0",
"P.	c #82B375",
"Q.	c #78DC5E",
"R.	c #76B365",
"S.	c #AAB1A8",
"T.	c #C7C3C8",
"U.	c #C4C1C4",
"V.	c #93C884",
"W.	c #85E869",
"X.	c #97AB90",
"Y.	c #C4C0C5",
"Z.	c #BDB9BF",
"`.	c #8FC481",
" +	c #86EB6A",
".+	c #94B68B",
"++	c #C2BEC3",
"@+	c #C1BEC1",
"#+	c #93AF8A",
"$+	c #77AF68",
"%+	c #9AB095",
"&+	c #C2C0C3",
"    . + @ # $ % & * = - ; >     ",
"  . , ' ) ! ~ { ] ^ / ( _ : <   ",
"  [ } | 1 2 3 4 5 6 7 8 9 0 a   ",
"b c d e f g h i j k l m n o p q ",
"r s t u v w x y z A B C D E F G ",
"H I J K L M N O P Q R S T U V W ",
"X Y Z `  ...+.@.#.$.%.&.*.=.-.;.",
">.,.'.).!.~.{.].^./.(._.:.<.[.}.",
"|.1.2.3.4.5.6.7.8.9.0.a.b.c.d.e.",
"f.g.h.i.j.k.l.m.n.o.p.q.r.s.t.u.",
"v.w.x.y.z.A.B.C.D.E.F.G.H.I.J.. ",
"K.L.M.M.N.O.P.Q.R.S.T.W U.L..   ",
"        G O.V.W.X.Y.  q q       ",
"        K.Z.`. +.+++            ",
"        q @+#+$+%+&+            "};
