/* XPM */
static char * TBB_BUILDLIBRARY_LARGE_xpm[] = {
"32 32 608 2",
"  	c None",
". 	c #BEC0BE",
"+ 	c #B8BAB8",
"@ 	c #B3B7B2",
"# 	c #B6B9B6",
"$ 	c #BDBFBD",
"% 	c #BFC0BF",
"& 	c #BBBDBB",
"* 	c #B9BCB9",
"= 	c #BCBEBC",
"- 	c #BEBEBE",
"; 	c #B8BAB7",
"> 	c #A7AEA4",
", 	c #899577",
"' 	c #728354",
") 	c #758962",
"! 	c #8C9A89",
"~ 	c #93A08F",
"{ 	c #92A08F",
"] 	c #8D9B89",
"^ 	c #7F9278",
"/ 	c #6D895F",
"( 	c #889882",
"_ 	c #A4ACA2",
": 	c #B9BBB9",
"< 	c #B6B9B5",
"[ 	c #A9AFA7",
"} 	c #A6AEA4",
"| 	c #ACAC9E",
"1 	c #A7ACA0",
"2 	c #827E45",
"3 	c #656B28",
"4 	c #536219",
"5 	c #48600F",
"6 	c #41650B",
"7 	c #396710",
"8 	c #2F640E",
"9 	c #277005",
"0 	c #207200",
"a 	c #1C6C00",
"b 	c #1B5E03",
"c 	c #386A26",
"d 	c #9BA698",
"e 	c #BBBCBA",
"f 	c #AAAFA5",
"g 	c #967322",
"h 	c #918654",
"i 	c #9C8D5E",
"j 	c #A5AB9F",
"k 	c #879276",
"l 	c #5E6929",
"m 	c #475E16",
"n 	c #3D5B11",
"o 	c #335E0C",
"p 	c #286205",
"q 	c #1B6700",
"r 	c #176300",
"s 	c #186900",
"t 	c #186A00",
"u 	c #135900",
"v 	c #145800",
"w 	c #3F6E32",
"x 	c #919E8D",
"y 	c #AFB4AC",
"z 	c #B9BBB8",
"A 	c #BEBFBE",
"B 	c #AEB0A5",
"C 	c #9C9E84",
"D 	c #A0A492",
"E 	c #A9AEA3",
"F 	c #AAAA99",
"G 	c #A2AA9F",
"H 	c #687538",
"I 	c #4B671F",
"J 	c #3B6314",
"K 	c #2C5D0D",
"L 	c #206107",
"M 	c #196E00",
"N 	c #156200",
"O 	c #145C00",
"P 	c #145E00",
"Q 	c #176900",
"R 	c #156100",
"S 	c #155F00",
"T 	c #2D701B",
"U 	c #347022",
"V 	c #517A41",
"W 	c #8E9E88",
"X 	c #B7BAB7",
"Y 	c #B9B9B5",
"Z 	c #B5B6AD",
"` 	c #B3B3AA",
" .	c #AAAA98",
"..	c #ABB1A9",
"+.	c #97A394",
"@.	c #728765",
"#.	c #3D6620",
"$.	c #285B0F",
"%.	c #1C6307",
"&.	c #1A7700",
"*.	c #176A00",
"=.	c #155E00",
"-.	c #145B00",
";.	c #186E01",
">.	c #186B01",
",.	c #186902",
"'.	c #1A7102",
").	c #196A02",
"!.	c #175F02",
"~.	c #406B31",
"{.	c #BAB9B3",
"].	c #BABAB6",
"^.	c #B0B4AE",
"/.	c #9C9B79",
"(.	c #7C8851",
"_.	c #798C68",
":.	c #527041",
"<.	c #285B11",
"[.	c #1D640A",
"}.	c #1C7A03",
"|.	c #1C7604",
"1.	c #196B03",
"2.	c #186304",
"3.	c #1B7004",
"4.	c #1C7305",
"5.	c #1D7505",
"6.	c #1E7605",
"7.	c #1B6905",
"8.	c #185D05",
"9.	c #316322",
"0.	c #A1AA9F",
"a.	c #BABBB8",
"b.	c #B3B4AC",
"c.	c #B2B3AA",
"d.	c #B2B4AA",
"e.	c #A4A594",
"f.	c #948C5E",
"g.	c #949D84",
"h.	c #808E6C",
"i.	c #5B7439",
"j.	c #3D661B",
"k.	c #2A6413",
"l.	c #20650D",
"m.	c #1B6706",
"n.	c #1F7807",
"o.	c #207A08",
"p.	c #207808",
"q.	c #217909",
"r.	c #1F7309",
"s.	c #227A0A",
"t.	c #1F710A",
"u.	c #1E6909",
"v.	c #2E6A1E",
"w.	c #9DA79A",
"x.	c #BBBCB9",
"y.	c #B0B1A7",
"z.	c #A7A287",
"A.	c #A8A58E",
"B.	c #A7A896",
"C.	c #A09977",
"D.	c #9C9D85",
"E.	c #929C88",
"F.	c #6D7944",
"G.	c #50661E",
"H.	c #3B6319",
"I.	c #2D6515",
"J.	c #22660F",
"K.	c #1E670A",
"L.	c #237A0C",
"M.	c #21730C",
"N.	c #206B0C",
"O.	c #257B0E",
"P.	c #216F0D",
"Q.	c #206A0C",
"R.	c #25790F",
"S.	c #23720E",
"T.	c #216B0E",
"U.	c #306B21",
"V.	c #ADAEA0",
"W.	c #A9A48B",
"X.	c #ACAEA4",
"Y.	c #ACAC9D",
"Z.	c #A9A895",
"`.	c #A8A998",
" +	c #8D8F6A",
".+	c #6D702E",
"++	c #51661F",
"@+	c #3E641B",
"#+	c #2F6619",
"$+	c #266A14",
"%+	c #236E0F",
"&+	c #257510",
"*+	c #21670F",
"=+	c #1F600E",
"-+	c #2A8014",
";+	c #277512",
">+	c #246D12",
",+	c #287513",
"'+	c #277213",
")+	c #266E13",
"!+	c #306E20",
"~+	c #96A292",
"{+	c #BCBDBB",
"]+	c #AAAFA4",
"^+	c #9C8D5C",
"/+	c #A7A795",
"(+	c #B1B3AB",
"_+	c #B2B2A8",
":+	c #B5B8B4",
"<+	c #B0B0A6",
"[+	c #ACA68F",
"}+	c #B3B6B2",
"|+	c #A6AC9F",
"1+	c #89967C",
"2+	c #61774C",
"3+	c #40661E",
"4+	c #356E1C",
"5+	c #2E7619",
"6+	c #297715",
"7+	c #226212",
"8+	c #215E12",
"9+	c #256914",
"0+	c #328A1B",
"a+	c #348F1C",
"b+	c #31861B",
"c+	c #2A7318",
"d+	c #2A7218",
"e+	c #2B7419",
"f+	c #327B1F",
"g+	c #6D8765",
"h+	c #ACB1AA",
"i+	c #BDBEBD",
"j+	c #A19772",
"k+	c #9C9775",
"l+	c #ABB0A8",
"m+	c #B0B3AD",
"n+	c #A9AA98",
"o+	c #B1B3A9",
"p+	c #AEB0A6",
"q+	c #A4A998",
"r+	c #929D84",
"s+	c #60773D",
"t+	c #426620",
"u+	c #386C1F",
"v+	c #337A1E",
"w+	c #31811C",
"x+	c #276617",
"y+	c #276517",
"z+	c #2D731B",
"A+	c #389122",
"B+	c #378B21",
"C+	c #348520",
"D+	c #358421",
"E+	c #30771E",
"F+	c #2E721D",
"G+	c #31791F",
"H+	c #368623",
"I+	c #74906C",
"J+	c #B7BAB6",
"K+	c #BCBDBC",
"L+	c #B0B5AF",
"M+	c #A8A690",
"N+	c #ACAFA4",
"O+	c #A29A76",
"P+	c #A09773",
"Q+	c #A6A289",
"R+	c #ADAEA1",
"S+	c #A6A999",
"T+	c #948C5B",
"U+	c #8F926C",
"V+	c #8B977C",
"W+	c #5F783D",
"X+	c #466A22",
"Y+	c #3E7123",
"Z+	c #377B23",
"`+	c #358222",
" @	c #327920",
".@	c #327820",
"+@	c #357E22",
"@@	c #3A8B26",
"#@	c #388325",
"$@	c #378024",
"%@	c #3A8827",
"&@	c #377F25",
"*@	c #367D25",
"=@	c #388126",
"-@	c #3B8729",
";@	c #628558",
">@	c #B1B5B0",
",@	c #B8B8B2",
"'@	c #B0AFA1",
")@	c #ADB0A6",
"!@	c #A8A692",
"~@	c #ACB0A8",
"{@	c #ABAFA5",
"]@	c #9FA089",
"^@	c #98997B",
"/@	c #94987C",
"(@	c #90987C",
"_@	c #869273",
":@	c #637948",
"<@	c #4E7527",
"[@	c #47802A",
"}@	c #3F8129",
"|@	c #367B25",
"1@	c #449A2F",
"2@	c #43972F",
"3@	c #3C872A",
"4@	c #367826",
"5@	c #377927",
"6@	c #387B28",
"7@	c #387A28",
"8@	c #3F892D",
"9@	c #449230",
"0@	c #459632",
"a@	c #3C812B",
"b@	c #4F8242",
"c@	c #A5ACA3",
"d@	c #B7B9B6",
"e@	c #AFAEA0",
"f@	c #AFAEA2",
"g@	c #ACADA1",
"h@	c #A6A895",
"i@	c #A2A89B",
"j@	c #958651",
"k@	c #918958",
"l@	c #8D967B",
"m@	c #83875C",
"n@	c #7B885E",
"o@	c #647C4B",
"p@	c #4B6F28",
"q@	c #47792B",
"r@	c #42812D",
"s@	c #3D832C",
"t@	c #40872E",
"u@	c #428D30",
"v@	c #418930",
"w@	c #377328",
"x@	c #377228",
"y@	c #3A792B",
"z@	c #418430",
"A@	c #408330",
"B@	c #428732",
"C@	c #458C34",
"D@	c #438733",
"E@	c #478637",
"F@	c #869780",
"G@	c #A9A792",
"H@	c #A8A68F",
"I@	c #B0B3AB",
"J@	c #9FA492",
"K@	c #94834A",
"L@	c #979879",
"M@	c #999673",
"N@	c #92977D",
"O@	c #897F46",
"P@	c #7E7C45",
"Q@	c #7F8E6A",
"R@	c #667E4E",
"S@	c #4D712C",
"T@	c #45742D",
"U@	c #437F31",
"V@	c #458A34",
"W@	c #3F7F2F",
"X@	c #407F30",
"Y@	c #408031",
"Z@	c #3F7D30",
"`@	c #3C772E",
" #	c #3E7A30",
".#	c #478B37",
"+#	c #458635",
"@#	c #438334",
"##	c #428033",
"$#	c #498B38",
"%#	c #478837",
"&#	c #4D7B42",
"*#	c #A6ADA4",
"=#	c #9C8F60",
"-#	c #A7AB9E",
";#	c #ACB0A6",
">#	c #978A59",
",#	c #938857",
"'#	c #A0A594",
")#	c #A4A89A",
"!#	c #9A9776",
"~#	c #8E9272",
"{#	c #889070",
"]#	c #84957C",
"^#	c #637C47",
"/#	c #507832",
"(#	c #456F30",
"_#	c #447D34",
":#	c #4D943C",
"<#	c #438034",
"[#	c #3D7430",
"}#	c #4C8F3B",
"|#	c #468537",
"1#	c #448036",
"2#	c #4C8E3C",
"3#	c #4C8D3C",
"4#	c #468338",
"5#	c #3E7231",
"6#	c #4E903E",
"7#	c #4D8D3D",
"8#	c #467A35",
"9#	c #8C9B87",
"0#	c #A0946A",
"a#	c #ADAE9F",
"b#	c #A0A18B",
"c#	c #99A08D",
"d#	c #9AA493",
"e#	c #979777",
"f#	c #979471",
"g#	c #95997E",
"h#	c #82885C",
"i#	c #6E7E49",
"j#	c #597638",
"k#	c #4D7235",
"l#	c #436D32",
"m#	c #488039",
"n#	c #57A146",
"o#	c #519440",
"p#	c #478239",
"q#	c #437A36",
"r#	c #4F8F40",
"s#	c #519341",
"t#	c #529442",
"u#	c #549744",
"v#	c #4C873D",
"w#	c #437937",
"x#	c #3E6E32",
"y#	c #559645",
"z#	c #599B48",
"A#	c #518A40",
"B#	c #728967",
"C#	c #B8BBB7",
"D#	c #ADB1A8",
"E#	c #A3A28D",
"F#	c #98A395",
"G#	c #8E8147",
"H#	c #897A3B",
"I#	c #8B7C3E",
"J#	c #959472",
"K#	c #99A290",
"L#	c #7C804C",
"M#	c #667840",
"N#	c #567739",
"O#	c #50783B",
"P#	c #48783A",
"Q#	c #4B7F3D",
"R#	c #529243",
"S#	c #579947",
"T#	c #549344",
"U#	c #508C41",
"V#	c #569746",
"W#	c #559546",
"X#	c #569546",
"Y#	c #599B49",
"Z#	c #518B42",
"`#	c #4A7F3D",
" $	c #467839",
".$	c #518B43",
"+$	c #599649",
"@$	c #5B9546",
"#$	c #81947A",
"$$	c #BABCB9",
"%$	c #B3B2A7",
"&$	c #A3A088",
"*$	c #978D60",
"=$	c #918045",
"-$	c #89804A",
";$	c #877F4A",
">$	c #8E8552",
",$	c #9F9D82",
"'$	c #A3A99C",
")$	c #7E8250",
"!$	c #667B45",
"~$	c #577B40",
"{$	c #537E43",
"]$	c #508141",
"^$	c #4C7F3F",
"/$	c #4B803E",
"($	c #5B9A4A",
"_$	c #5B9B4B",
":$	c #5C9C4C",
"<$	c #569047",
"[$	c #538C45",
"}$	c #5C9A4C",
"|$	c #568F47",
"1$	c #518743",
"2$	c #4F8241",
"3$	c #4C7E3F",
"4$	c #558C46",
"5$	c #638F53",
"6$	c #A2AAA0",
"7$	c #BFBFBF",
"8$	c #A69F82",
"9$	c #A2A798",
"0$	c #9DA08A",
"a$	c #9A997B",
"b$	c #9C9E85",
"c$	c #A0A390",
"d$	c #A5AEA4",
"e$	c #A1A99C",
"f$	c #868F6F",
"g$	c #697D4C",
"h$	c #587C44",
"i$	c #548046",
"j$	c #4F7E43",
"k$	c #4D7E41",
"l$	c #508442",
"m$	c #5C994D",
"n$	c #528744",
"o$	c #49783C",
"p$	c #5D984D",
"q$	c #518443",
"r$	c #4C7A3F",
"s$	c #588B49",
"t$	c #548346",
"u$	c #507A42",
"v$	c #4B703E",
"w$	c #537447",
"x$	c #7F9179",
"y$	c #B6B6AF",
"z$	c #B3B1A5",
"A$	c #ABAA99",
"B$	c #9F9164",
"C$	c #99946E",
"D$	c #8D9470",
"E$	c #74875C",
"F$	c #5A7B4B",
"G$	c #557B47",
"H$	c #537C46",
"I$	c #547D46",
"J$	c #547C46",
"K$	c #507342",
"L$	c #48653B",
"M$	c #55714A",
"N$	c #6A8361",
"O$	c #5D794E",
"P$	c #586F44",
"Q$	c #54673F",
"R$	c #52613C",
"S$	c #515E3B",
"T$	c #576946",
"U$	c #95A191",
"V$	c #B1B6B0",
"W$	c #AFB4AE",
"X$	c #9FA99C",
"Y$	c #6B7E5E",
"Z$	c #546743",
"`$	c #556541",
" %	c #586541",
".%	c #59623E",
"+%	c #464B30",
"@%	c #4B553A",
"#%	c #95A192",
"$%	c #94A090",
"%%	c #84937E",
"&%	c #75846C",
"*%	c #7A8771",
"=%	c #9FA79C",
"-%	c #8D9986",
";%	c #515B3E",
">%	c #51573B",
",%	c #57593B",
"'%	c #5C5C3E",
")%	c #4A4D34",
"!%	c #82917C",
"~%	c #B6B8B5",
"{%	c #596343",
"]%	c #5B6141",
"^%	c #585B3D",
"/%	c #575E40",
"(%	c #808F79",
"_%	c #9BA597",
":%	c #5A6444",
"<%	c #5C6242",
"[%	c #585C3E",
"}%	c #7D8F77",
"|%	c #96A090",
"1%	c #545D3F",
"2%	c #555A3D",
"3%	c #56593B",
"4%	c #899883",
"5%	c #939E8D",
"6%	c #576142",
"7%	c #50563A",
"8%	c #525438",
"9%	c #748269",
"0%	c #98A293",
"a%	c #555F40",
"b%	c #4B5137",
"c%	c #505338",
"d%	c #6A785A",
"e%	c #99A394",
"f%	c #515A3C",
"g%	c #494F36",
"h%	c #505237",
"i%	c #6F7E62",
"j%	c #9FA69A",
"k%	c #5D6344",
"l%	c #51583C",
"m%	c #4E5137",
"n%	c #78826D",
"o%	c #B7BAB5",
"p%	c #A5ADA3",
"q%	c #929C8D",
"                    . + @ # $     % & * = %                     ",
"              % - ; > , ' ) ! ~ { ] ^ / ( _ :                   ",
"          < [ } | 1 2 3 4 5 6 7 8 9 0 a b c d e                 ",
"        % f g h i j k l m n o p q r s t u v w x _ y z %         ",
"        A B C D E F G H I J K L M N O P Q R S T U V W X         ",
"        A Y Z : `  ...+.@.#.$.%.&.*.=.-.;.>.,.'.).!.~...        ",
"        - {.].& ^./.G (._.:.<.[.}.|.1.2.3.4.5.6.7.8.9.0.        ",
"      % a.b.c.d.e.f.g.h.i.j.k.l.m.n.o.p.q.r.r.s.t.u.v.w.        ",
"    % x.y.z.A.B.C.D.E.F.G.H.I.J.K.L.M.N.O.P.Q.R.S.T.U.d         ",
"  e @ V.W.X.Y.Z.`.f  +.+++@+#+$+%+&+*+=+-+;+>+,+'+)+!+~+%       ",
"{+]+^+/+(+_+:+<+[+}+|+1+2+3+4+5+6+7+8+9+0+a+b+c+d+e+f+g+h+i+    ",
"z j+k+l+m+n+| o+p+f q+r+s+t+u+v+w+x+y+z+A+B+C+D+E+F+G+H+I+J+    ",
"K+L+M+N+O+P+Q+R+S+T+U+V+W+X+Y+Z+`+ @.@+@@@#@$@%@&@*@=@-@;@>@    ",
"% ,@'@)@!@~@{@]@^@/@(@_@:@<@[@}@|@1@2@3@4@5@6@7@8@9@0@a@b@c@%   ",
"- d@e@f@g@h@i@j@k@l@m@n@o@p@q@r@s@t@u@v@w@x@y@z@A@B@C@D@E@F@+   ",
"+ G@H@I@J@K@L@M@N@O@P@Q@R@S@T@U@V@W@X@Y@Z@`@ #.#+#@###$#%#&#*#  ",
">@=#-#;#>#,#'#)#!#~#{#]#^#/#(#_#:#<#[#[#}#|#1#2#3#4#5#6#7#8#9#= ",
"@ 0#{@a#b#c#d#e#f#g#h#i#j#k#l#m#n#o#p#q#r#s#t#u#v#w#x#y#z#A#B#C#",
"e @ D#E#F#G#H#I#J#K#L#M#N#O#P#Q#R#S#T#U#V#W#X#Y#Z#`# $.$+$@$#$$$",
"A %$&$*$=$-$;$>$,$'$)$!$~${$]$^$/$($_$+$:$<$[$}$|$1$2$3$4$5$6$7$",
"% d@8$9$0$a$b$c$d$e$f$g$h$i$j$k$l$m$n$o$p$q$r$s$t$u$v$w$x$_ :   ",
"  i+: y$z$d.b.A$B$C$D$E$F$G$H$I$J$K$L$M$N$O$P$Q$R$S$T$U$d@%     ",
"    % - i+- i+z V$L+W$X$Y$Z$`$ %.%+%@%#%^.c@$%%%&%*%=%:         ",
"                      : -%;%>%,%'%)%!%~%    % K++ z i+          ",
"                      7$w.{%]%^%/%(%>@%                         ",
"                      7$_%:%<%[%}%@ 7$                          ",
"                      i+|%1%2%3%4%K+                            ",
"                      i+5%6%7%8%9%:+                            ",
"                      - 0%a%b%c%d%^.                            ",
"                      A e%f%g%h%i%>@                            ",
"                      A j%k%l%m%n%~%                            ",
"                      % o%p%F#q%h+K+                            "};
