/* XPM */
static char * TBB_BUILDLIBRARY_xpm[] = {
"16 15 185 2",
"  	c None",
". 	c #C0C0C1",
"+ 	c #C0C2C4",
"@ 	c #BEBFBE",
"# 	c #A8AC9D",
"$ 	c #969F87",
"% 	c #A4ACA0",
"& 	c #A5ADA1",
"* 	c #96A58F",
"= 	c #A6AEA3",
"- 	c #C3C2C4",
"; 	c #C4C3C4",
"> 	c #C1C1C1",
", 	c #C1C1C2",
"' 	c #B7B7B0",
") 	c #9E9876",
"! 	c #A6A693",
"~ 	c #747C48",
"{ 	c #425B0B",
"] 	c #36630F",
"^ 	c #256909",
"/ 	c #186800",
"( 	c #21600E",
"_ 	c #84977E",
": 	c #B6B8B5",
"< 	c #B8B8B3",
"[ 	c #A9A895",
"} 	c #AEAFA3",
"| 	c #929B82",
"1 	c #4D6B2D",
"2 	c #205F06",
"3 	c #146A00",
"4 	c #125D00",
"5 	c #116400",
"6 	c #1A6907",
"7 	c #306D1D",
"8 	c #8C9D86",
"9 	c #C5C3C6",
"0 	c #B9B9B4",
"a 	c #B7B8B3",
"b 	c #A4A48E",
"c 	c #8F987A",
"d 	c #57743E",
"e 	c #22610D",
"f 	c #1B7304",
"g 	c #1C7105",
"h 	c #1D7207",
"i 	c #1D7504",
"j 	c #106200",
"k 	c #65865C",
"l 	c #C7C4C8",
"m 	c #C1C0C1",
"n 	c #BEBFBF",
"o 	c #B6B6AE",
"p 	c #ADAC9B",
"q 	c #A9A996",
"r 	c #A5A491",
"s 	c #81885E",
"t 	c #45631A",
"u 	c #276613",
"v 	c #216F0D",
"w 	c #216E0D",
"x 	c #267610",
"y 	c #247210",
"z 	c #1D6C08",
"A 	c #668A5D",
"B 	c #C7C3C7",
"C 	c #B1AFA1",
"D 	c #A29F85",
"E 	c #ADAFA2",
"F 	c #B0B0A5",
"G 	c #B0B1A5",
"H 	c #979E87",
"I 	c #516E31",
"J 	c #317119",
"K 	c #286F16",
"L 	c #266716",
"M 	c #358C1E",
"N 	c #31801D",
"O 	c #297217",
"P 	c #437F33",
"Q 	c #A6AFA3",
"R 	c #C4C2C4",
"S 	c #B8B8B4",
"T 	c #ABAC9D",
"U 	c #A7A58F",
"V 	c #9B9A7D",
"W 	c #8B9372",
"X 	c #587637",
"Y 	c #3C7922",
"Z 	c #388425",
"` 	c #3A8627",
" .	c #377F26",
"..	c #387F27",
"+.	c #3C862A",
"@.	c #368323",
"#.	c #7D9876",
"$.	c #C5C2C6",
"%.	c #AFAE9F",
"&.	c #ABAB9B",
"*.	c #9F9D80",
"=.	c #9E9F87",
"-.	c #92906C",
";.	c #828C68",
">.	c #5A783E",
",.	c #447A2E",
"'.	c #458A35",
").	c #407F31",
"!.	c #417E31",
"~.	c #448435",
"{.	c #468737",
"].	c #448535",
"^.	c #518743",
"/.	c #A9B0A7",
"(.	c #B0B0A4",
"_.	c #A7A896",
":.	c #95936F",
"<.	c #908A5E",
"[.	c #97977A",
"}.	c #768353",
"|.	c #527438",
"1.	c #487B39",
"2.	c #539643",
"3.	c #4D893E",
"4.	c #529443",
"5.	c #569846",
"6.	c #4B833D",
"7.	c #49833C",
"8.	c #508E3D",
"9.	c #98A693",
"0.	c #BBBCB9",
"a.	c #A29F86",
"b.	c #948F65",
"c.	c #948E66",
"d.	c #9FA18C",
"e.	c #738253",
"f.	c #537C40",
"g.	c #4E8042",
"h.	c #558F47",
"i.	c #548F44",
"j.	c #518A42",
"k.	c #518641",
"l.	c #4F7F3E",
"m.	c #4C773E",
"n.	c #799870",
"o.	c #B7B9B5",
"p.	c #BFBFBF",
"q.	c #BABBB8",
"r.	c #B8B9B5",
"s.	c #B5B7B0",
"t.	c #AAA996",
"u.	c #939E86",
"v.	c #5C774E",
"w.	c #546F42",
"x.	c #4B6237",
"y.	c #607456",
"z.	c #899A83",
"A.	c #728466",
"B.	c #667557",
"C.	c #909989",
"D.	c #C1BFC2",
"E.	c #C2C1C2",
"F.	c #C2C2C4",
"G.	c #C1C3C4",
"H.	c #77816B",
"I.	c #515435",
"J.	c #61654C",
"K.	c #A8ACA7",
"L.	c #C7C5C8",
"M.	c #BFBFC0",
"N.	c #BBBDBB",
"O.	c #C2C2C3",
"P.	c #C2C3C3",
"Q.	c #7B836D",
"R.	c #515837",
"S.	c #9AA395",
"T.	c #C6C5C7",
"U.	c #C1C2C2",
"V.	c #747E66",
"W.	c #454B2C",
"X.	c #919888",
"Y.	c #C5C4C6",
"Z.	c #899080",
"`.	c #60664E",
" +	c #9AA196",
"    . + @ # $ % & * = - ; >     ",
"  , ' ) ! ~ { ] ^ / ( _ :       ",
"  , < [ } | 1 2 3 4 5 6 7 8 9   ",
"> , 0 a b c d e f g h i j k l m ",
"n o p q r s t u v w x y z A B m ",
"C D E F G H I J K L M N O P Q R ",
"S T U ! V W X Y Z `  ...+.@.#.$.",
"%.&.*.=.-.;.>.,.'.).!.~.{.].^./.",
"(._.:.<.[.}.|.1.2.3.4.5.6.7.8.9.",
"0.a.b.c.d.e.f.g.h.i.j.k.l.m.n.o.",
"p.q.r.s.t.u.v.w.x.y.z.A.B.C.D.E.",
"  > , , F.G.H.I.J.K.L.M.N.O.E.  ",
"        > P.Q.R.S.T.. > E.>     ",
"        > U.V.W.X.Y.            ",
"        m O.Z.`. +;             "};
