/* XPM */
static char * TBB_BUILDLIBRARY_LARGE_xpm[] = {
"32 32 538 2",
"  	c #C0C0C0",
". 	c #BEBFBE",
"+ 	c #B9BBB9",
"@ 	c #B3B7B2",
"# 	c #B0B5AF",
"$ 	c #B5B8B4",
"% 	c #BBBCBA",
"& 	c #BFBFBF",
"* 	c #BEBEBE",
"= 	c #BABCBA",
"- 	c #BCBDBC",
"; 	c #BFC0BF",
"> 	c #BDBEBD",
", 	c #B2B6B1",
"' 	c #9FA89C",
") 	c #849F7B",
"! 	c #769E6A",
"~ 	c #74A566",
"{ 	c #779D6D",
"] 	c #839C7C",
"^ 	c #8F9D8B",
"/ 	c #94A090",
"( 	c #8C9B87",
"_ 	c #829F79",
": 	c #839C7B",
"< 	c #8BA084",
"[ 	c #A0A99E",
"} 	c #B6B9B5",
"| 	c #B7BAB6",
"1 	c #A4ACA2",
"2 	c #919E8D",
"3 	c #769E6B",
"4 	c #6DB15B",
"5 	c #76D45D",
"6 	c #8ADC73",
"7 	c #9DE28A",
"8 	c #8ADC74",
"9 	c #77D65D",
"0 	c #77D25E",
"a 	c #73C45D",
"b 	c #79D75F",
"c 	c #7CD863",
"d 	c #87DC70",
"e 	c #77D05E",
"f 	c #6CBB56",
"g 	c #8D9E88",
"h 	c #B7B9B6",
"i 	c #60B847",
"j 	c #69C151",
"k 	c #7BD562",
"l 	c #B2E8A3",
"m 	c #D0F1C7",
"n 	c #CBF0C1",
"o 	c #C7EEBC",
"p 	c #C3EDB7",
"q 	c #BEECB2",
"r 	c #AAE69A",
"s 	c #A8E596",
"t 	c #B3E8A4",
"u 	c #B1E8A1",
"v 	c #ADE69D",
"w 	c #85DB6E",
"x 	c #68B952",
"y 	c #889783",
"z 	c #A1AA9F",
"A 	c #ADB2AB",
"B 	c #7C9B73",
"C 	c #74D65A",
"D 	c #AEE79E",
"E 	c #C4EDB9",
"F 	c #BDECB1",
"G 	c #B8EAAA",
"H 	c #ABE69B",
"I 	c #A7E596",
"J 	c #A4E392",
"K 	c #9EE28C",
"L 	c #9AE187",
"M 	c #96E083",
"N 	c #7BD761",
"O 	c #69B953",
"P 	c #6BB756",
"Q 	c #6DA75C",
"R 	c #9DA79A",
"S 	c #B0B4AE",
"T 	c #5E994E",
"U 	c #89DC73",
"V 	c #BFECB3",
"W 	c #B9EAAB",
"X 	c #B2E8A4",
"Y 	c #A6E495",
"Z 	c #A2E390",
"` 	c #99E085",
" .	c #95DF80",
"..	c #90DE7B",
"+.	c #8CDC76",
"@.	c #87DB70",
"#.	c #84DA6C",
"$.	c #82DA6A",
"%.	c #85DB6D",
"&.	c #7FD966",
"*.	c #80D966",
"=.	c #72D656",
"-.	c #5FA64B",
";.	c #AAB0A8",
">.	c #9EA89B",
",.	c #4DA436",
"'.	c #8EDD78",
").	c #B1E8A2",
"!.	c #A5E494",
"~.	c #A0E38E",
"{.	c #9CE289",
"].	c #97E083",
"^.	c #93DF7F",
"/.	c #8EDE79",
"(.	c #8ADD74",
"_.	c #86DB6E",
":.	c #82DA69",
"<.	c #7ED965",
"[.	c #77D75C",
"}.	c #75D65A",
"|.	c #77D75D",
"1.	c #79D85F",
"2.	c #67D349",
"3.	c #49BA2A",
"4.	c #9AA597",
"5.	c #719666",
"6.	c #5ACD3A",
"7.	c #ADE79D",
"8.	c #A0E38D",
"9.	c #9BE287",
"0.	c #97E183",
"a.	c #92DF7D",
"b.	c #8EDE78",
"c.	c #8ADD73",
"d.	c #85DC6E",
"e.	c #81DB69",
"f.	c #7DD964",
"g.	c #7AD85F",
"h.	c #75D75A",
"i.	c #71D655",
"j.	c #6DD551",
"k.	c #6AD44D",
"l.	c #67D34A",
"m.	c #66D248",
"n.	c #64D346",
"o.	c #58D037",
"p.	c #3DC119",
"q.	c #BCBDBB",
"r.	c #58C13C",
"s.	c #9FE38D",
"t.	c #A6E594",
"u.	c #9DE38A",
"v.	c #96E182",
"w.	c #92E07C",
"x.	c #89DD72",
"y.	c #7DDA64",
"z.	c #79D95F",
"A.	c #75D85B",
"B.	c #71D755",
"C.	c #6DD651",
"D.	c #6AD54C",
"E.	c #66D448",
"F.	c #63D445",
"G.	c #60D241",
"H.	c #5CD13C",
"I.	c #5BD03B",
"J.	c #50CF2E",
"K.	c #3CC916",
"L.	c #869C80",
"M.	c #629C51",
"N.	c #78D85D",
"O.	c #A4E593",
"P.	c #9BE387",
"Q.	c #93E17E",
"R.	c #8DDF77",
"S.	c #8ADE73",
"T.	c #85DD6D",
"U.	c #82DC69",
"V.	c #7EDB64",
"W.	c #7AD95F",
"X.	c #76D95B",
"Y.	c #72D857",
"Z.	c #6FD752",
"`.	c #6BD64E",
" +	c #68D54A",
".+	c #64D446",
"++	c #61D341",
"@+	c #5ED33E",
"#+	c #5BD23A",
"$+	c #58D137",
"%+	c #57D135",
"&+	c #52CF30",
"*+	c #48CE23",
"=+	c #77966D",
"-+	c #9CA899",
";+	c #61A24E",
">+	c #79D262",
",+	c #9AE387",
"'+	c #99E385",
")+	c #90E07A",
"!+	c #8ADF73",
"~+	c #86DE6E",
"{+	c #7EDB65",
"]+	c #7BDB60",
"^+	c #76DA5B",
"/+	c #73D957",
"(+	c #6FD853",
"_+	c #6CD74E",
":+	c #69D74C",
"<+	c #66D647",
"[+	c #62D543",
"}+	c #60D540",
"|+	c #5CD43C",
"1+	c #5AD339",
"2+	c #57D336",
"3+	c #55D233",
"4+	c #54D232",
"5+	c #56D234",
"6+	c #53D231",
"7+	c #5BA546",
"8+	c #BBBDBB",
"9+	c #67AA55",
"0+	c #74D958",
"a+	c #93E27E",
"b+	c #96E280",
"c+	c #8DE177",
"d+	c #88DE6F",
"e+	c #83DD6A",
"f+	c #7FDD65",
"g+	c #7BDC61",
"h+	c #70D953",
"i+	c #66D747",
"j+	c #5ED43E",
"k+	c #5CD43B",
"l+	c #5BD339",
"m+	c #58D437",
"n+	c #58D336",
"o+	c #56D334",
"p+	c #55D332",
"q+	c #53D331",
"r+	c #52D22F",
"s+	c #50D22D",
"t+	c #50D22B",
"u+	c #51D22E",
"v+	c #55D533",
"w+	c #5DD63C",
"x+	c #5FD63E",
"y+	c #6DA85D",
"z+	c #B1B5B0",
"A+	c #809978",
"B+	c #60CA42",
"C+	c #8BE074",
"D+	c #88E070",
"E+	c #84DF6C",
"F+	c #80DE67",
"G+	c #73DB56",
"H+	c #59D438",
"I+	c #47CF22",
"J+	c #46CF21",
"K+	c #47D021",
"L+	c #47D022",
"M+	c #48D023",
"N+	c #48D123",
"O+	c #49D124",
"P+	c #4AD124",
"Q+	c #4AD225",
"R+	c #4BD226",
"S+	c #4CD227",
"T+	c #4CD328",
"U+	c #4DD328",
"V+	c #4DD329",
"W+	c #4FD42A",
"X+	c #53D530",
"Y+	c #5AD738",
"Z+	c #61D940",
"`+	c #5FA84B",
" @	c #A5ACA3",
".@	c #97A293",
"+@	c #4DB72F",
"@@	c #81DB68",
"#@	c #81DE68",
"$@	c #74DC57",
"%@	c #57D535",
"&@	c #4ED429",
"*@	c #4ED42A",
"=@	c #4FD42B",
"-@	c #50D52B",
";@	c #50D52C",
">@	c #51D52D",
",@	c #51D62D",
"'@	c #52D62E",
")@	c #53D72F",
"!@	c #54D730",
"~@	c #57D833",
"{@	c #5CDA3A",
"]@	c #63DB42",
"^@	c #65CC4A",
"/@	c #929F8E",
"(@	c #98A395",
"_@	c #51B635",
":@	c #6CDA50",
"<@	c #56D633",
"[@	c #55D831",
"}@	c #55D832",
"|@	c #56D832",
"1@	c #56D833",
"2@	c #57D934",
"3@	c #58D934",
"4@	c #58D935",
"5@	c #59DA36",
"6@	c #5ADA37",
"7@	c #5ADB38",
"8@	c #5CDB39",
"9@	c #60DC3E",
"0@	c #66DE45",
"a@	c #6EE04F",
"b@	c #6F9E61",
"c@	c #AFB4AD",
"d@	c #879881",
"e@	c #56D834",
"f@	c #5BDB38",
"g@	c #5CDC39",
"h@	c #5DDC3A",
"i@	c #5DDC3B",
"j@	c #5EDD3B",
"k@	c #5EDD3C",
"l@	c #5FDD3D",
"m@	c #60DE3D",
"n@	c #60DE3E",
"o@	c #61DE3F",
"p@	c #61DF3F",
"q@	c #65E044",
"r@	c #6BE14B",
"s@	c #71E352",
"t@	c #70D056",
"u@	c #93A18F",
"v@	c #AEB3AC",
"w@	c #64A851",
"x@	c #5DDB3A",
"y@	c #5DDB3B",
"z@	c #62DF40",
"A@	c #63DF41",
"B@	c #63E041",
"C@	c #64E042",
"D@	c #64E043",
"E@	c #65E143",
"F@	c #66E144",
"G@	c #66E145",
"H@	c #67E245",
"I@	c #67E246",
"J@	c #68E247",
"K@	c #69E348",
"L@	c #6CE44C",
"M@	c #6FE44E",
"N@	c #6FE54F",
"O@	c #74A567",
"P@	c #A8AFA6",
"Q@	c #5DB046",
"R@	c #5DD53D",
"S@	c #5FDB3E",
"T@	c #62DE40",
"U@	c #68E347",
"V@	c #6AE348",
"W@	c #6AE449",
"X@	c #6BE44A",
"Y@	c #6CE54B",
"Z@	c #6CE54C",
"`@	c #6DE54C",
" #	c #6EE64D",
".#	c #6EE54E",
"+#	c #6DE24D",
"@#	c #6ADC4C",
"##	c #68D74A",
"$#	c #66D349",
"%#	c #6AAA58",
"&#	c #AEB3AD",
"*#	c #659856",
"=#	c #5AC53D",
"-#	c #5DCA3F",
";#	c #60D141",
">#	c #63D543",
",#	c #64D745",
"'#	c #66DA47",
")#	c #68DD48",
"!#	c #69E049",
"~#	c #6BE24B",
"{#	c #6DE44C",
"]#	c #6EE54D",
"^#	c #6DE44D",
"/#	c #6DE14C",
"(#	c #6BDE4C",
"_#	c #6BDC4C",
":#	c #6ADB4C",
"<#	c #6BDB4D",
"[#	c #6CDC4E",
"}#	c #6DDD4E",
"|#	c #6EDF50",
"1#	c #6FE250",
"2#	c #70E251",
"3#	c #6EDD51",
"4#	c #6AD34D",
"5#	c #63C348",
"6#	c #5CB644",
"7#	c #5BB443",
"8#	c #769A6D",
"9#	c #789B6E",
"0#	c #54AE3B",
"a#	c #53AD3B",
"b#	c #55B13C",
"c#	c #56B33D",
"d#	c #57B33E",
"e#	c #58B63F",
"f#	c #5CBC42",
"g#	c #5FC244",
"h#	c #63C947",
"i#	c #67D04B",
"j#	c #6CDA4E",
"k#	c #70E151",
"l#	c #70E152",
"m#	c #6EDB50",
"n#	c #6AD24D",
"o#	c #66CA4B",
"p#	c #64C549",
"q#	c #62C248",
"r#	c #61BF47",
"s#	c #61C048",
"t#	c #64C24A",
"u#	c #65C54B",
"v#	c #66C54C",
"w#	c #63BF4A",
"x#	c #5CB245",
"y#	c #54A13F",
"z#	c #50963D",
"A#	c #589348",
"B#	c #548E44",
"C#	c #478F34",
"D#	c #458B32",
"E#	c #448832",
"F#	c #468B34",
"G#	c #499036",
"H#	c #4D9739",
"I#	c #52A13D",
"J#	c #5AAF43",
"K#	c #6ED452",
"L#	c #71DB55",
"M#	c #6FD653",
"N#	c #69C84E",
"O#	c #60B948",
"P#	c #5AA944",
"Q#	c #539F3F",
"R#	c #4F963C",
"S#	c #4E933B",
"T#	c #50963C",
"U#	c #51993E",
"V#	c #52993E",
"W#	c #4C8E3B",
"X#	c #4E873F",
"Y#	c #778F71",
"Z#	c #A2ABA0",
"`#	c #B8BAB8",
" $	c #B6B8B5",
".$	c #899F82",
"+$	c #59864E",
"@$	c #4D7B41",
"#$	c #5D8053",
"$$	c #6B8763",
"%$	c #608056",
"&$	c #4A793C",
"*$	c #497A3B",
"=$	c #4C7D3E",
"-$	c #4E8B3C",
";$	c #59A844",
">$	c #69C550",
",$	c #73D858",
"'$	c #74D859",
")$	c #66A754",
"!$	c #5C7B54",
"~$	c #589A46",
"{$	c #558448",
"]$	c #618158",
"^$	c #517B45",
"/$	c #4D7A41",
"($	c #4A7B3C",
"_$	c #4A7E3C",
":$	c #538046",
"<$	c #B4B7B3",
"[$	c #ABB1A9",
"}$	c #9BA698",
"|$	c #899884",
"1$	c #5B8F4C",
"2$	c #68BF52",
"3$	c #7ADE60",
"4$	c #639256",
"5$	c #66AB54",
"6$	c #60A04E",
"7$	c #A9AFA7",
"8$	c #A1A99E",
"9$	c #9EA79B",
"0$	c #84967F",
"a$	c #6FC459",
"b$	c #7BDA61",
"c$	c #7DDD63",
"d$	c #75CA5E",
"e$	c #6CBB57",
"f$	c #859B80",
"g$	c #95A191",
"h$	c #79CA63",
"i$	c #82E168",
"j$	c #7EDA65",
"k$	c #70B65D",
"l$	c #829B7B",
"m$	c #85E06D",
"n$	c #88E76F",
"o$	c #83DE6A",
"p$	c #72906A",
"q$	c #AFB4AE",
"r$	c #8EED74",
"s$	c #8FEF75",
"t$	c #7D9D73",
"u$	c #909D8C",
"v$	c #90EF77",
"w$	c #93F279",
"x$	c #96F67B",
"y$	c #7CB26C",
"z$	c #84D66D",
"A$	c #87DE6F",
"B$	c #8AE372",
"C$	c #79B767",
"D$	c #75BD61",
"E$	c #71BA5D",
"F$	c #75C060",
"G$	c #6FA260",
"H$	c #68A658",
"I$	c #5E9650",
"J$	c #63A352",
"K$	c #78A16D",
"L$	c #A2AA9F",
"M$	c #95A192",
"                  . + @ # $ % &   * % = - ;                     ",
"              > , ' ) ! ~ { ] ^ / ( _ : < [ } ;                 ",
"          | 1 2 3 4 5 6 7 8 9 0 a b c d e f g h                 ",
"        & ' i j k l m n o p q r s l t u v w x y z A %           ",
"        + B C D o E F G l D H I J K L M M L N O P Q R =         ",
"        S T U V W X v Y Z 7 `  ...+.@.#.$.%.6 &.*.=.-.;.        ",
"      * >.,.'.).r !.~.{.].^./.(._.:.<.b [.}.C |.1.2.3.4.        ",
"      , 5.6.7.I 8.9.0.a.b.c.d.e.f.g.h.i.j.k.l.m.n.o.p.2 ;       ",
"    q./ r.s.t.u.v.w.b.x.d.e.y.z.A.B.C.D.E.F.G.H.I.J.K.L.*       ",
"  = z M.N.O.P.Q.R.S.T.U.V.W.X.Y.Z.`. +.+++@+#+$+%+&+*+=+h       ",
"% -+;+>+,+'+)+!+~+U.{+]+^+/+(+_+:+<+[+}+|+1+2+3+4+5+6+7+R 8+    ",
"$ 9+0+a+b+c+d+e+f+g+h+i+j+k+l+m+n+o+p+q+r+s+t+s+u+v+w+x+y+z+    ",
"+ A+B+C+D+E+F+G+H+I+J+K+L+M+N+O+P+Q+R+R+S+T+U+V+W+X+Y+Z+`+ @    ",
"; .@+@@@#@$@%@R+R+S+T+U+V+&@*@=@-@;@>@,@'@'@)@!@!@~@{@]@^@/@>   ",
"  (@_@:@<@-@;@>@,@'@'@)@!@!@[@}@|@1@2@3@4@5@5@6@7@8@9@0@a@b@c@  ",
"= d@}+3@e@|@1@2@3@4@5@5@6@7@f@8@g@h@i@j@k@l@m@n@o@p@q@r@s@t@u@- ",
"v@w@i@x@y@g@h@i@j@k@l@m@n@o@p@z@A@B@C@D@E@F@G@H@I@J@K@L@M@N@O@@ ",
"P@Q@R@S@T@A@B@C@D@E@F@G@H@I@J@U@K@V@W@X@X@Y@Z@`@ #.#+#@###$#%#&#",
"&#*#=#-#;#[+>#,#'#)#!#~#{#]#^#/#(#_#:#<#[#}#|#1#2#3#4#5#6#7#8#$ ",
"h 9#0#a#b#c#d#e#f#g#h#i#j#k#l#m#n#o#p#q#r#s#t#u#v#w#x#y#z#A#' * ",
"* ' B#C#D#E#E#F#G#H#I#J#t#K#L#M#N#O#P#Q#R#S#T#U#V#z#W#X#Y#Z#`#  ",
"   $.$+$@$#$$$%$&$*$=$-$;$>$,$'$)$!$~${$]$^$/$($/$_$:$2 <$&     ",
"  . h [$P@&#<$c@1 >.}$|$1$2$[.3$4$5$6$2 A 7$8$>.R 9$P@+         ",
"                      + 0$a$b$c$d$e$f$<$                        ",
"                        g$h$i$j$k$l$S ;                         ",
"                        / m$n$o$p$q$&                           ",
"                        2 r$s$r$t$$                             ",
"                        u$v$w$x$y$A                             ",
"                        /@z$A$B$C$P@                            ",
"                        / D$E$F$G$;.                            ",
"                        [ H$I$J$K$z+                            ",
"                        } L$M$(@;.8+                            "};
