/* XPM */
static char * TBB_HELP_xpm[] = {
"16 15 119 2",
"  	c None",
". 	c #C1C1C1",
"+ 	c #C2C2C1",
"@ 	c #C1C1BF",
"# 	c #BFBFBD",
"$ 	c #BCBCBC",
"% 	c #ADADB3",
"& 	c #A8A8B5",
"* 	c #A7A7BA",
"= 	c #A7A7B5",
"- 	c #AEAEB3",
"; 	c #BEBEBC",
"> 	c #BABABA",
", 	c #A8A8B8",
"' 	c #C2C2E2",
") 	c #C3C3FB",
"! 	c #BABAFF",
"~ 	c #BDBDFE",
"{ 	c #C4C4FA",
"] 	c #B6B6E1",
"^ 	c #A4A4B7",
"/ 	c #BCBCBB",
"( 	c #C0C0BE",
"_ 	c #AAAAB5",
": 	c #C3C3F0",
"< 	c #A7A7FF",
"[ 	c #9393F8",
"} 	c #9393E5",
"| 	c #6868ED",
"1 	c #6F6FFD",
"2 	c #8E8EFF",
"3 	c #9393EE",
"4 	c #9696B4",
"5 	c #C3C3BF",
"6 	c #B5B5B5",
"7 	c #8F8FD3",
"8 	c #A1A1FF",
"9 	c #8C8CF1",
"0 	c #8C8CB9",
"a 	c #797993",
"b 	c #6262AF",
"c 	c #5555F2",
"d 	c #5B5BFF",
"e 	c #6868F5",
"f 	c #7D7DB9",
"g 	c #BBBBB8",
"h 	c #C3C3C1",
"i 	c #AFAFB7",
"j 	c #6F6FCA",
"k 	c #8B8BC3",
"l 	c #8383A5",
"m 	c #6A6A8E",
"n 	c #ACACAE",
"o 	c #9A9AA8",
"p 	c #7070EE",
"q 	c #7272FF",
"r 	c #9494DF",
"s 	c #8585A7",
"t 	c #B4B4B8",
"u 	c #BEBEBF",
"v 	c #ADADB4",
"w 	c #9F9FA8",
"x 	c #8D8D9F",
"y 	c #9999A8",
"z 	c #AFAFB3",
"A 	c #B3B3D2",
"B 	c #9F9FFF",
"C 	c #A2A2F0",
"D 	c #8B8BAC",
"E 	c #8B8B9D",
"F 	c #C1C1C0",
"G 	c #C3C3C2",
"H 	c #C5C5C3",
"I 	c #BEBEBD",
"J 	c #B4B4C1",
"K 	c #C7C7EE",
"L 	c #B8B8FF",
"M 	c #A2A2D8",
"N 	c #81819C",
"O 	c #8D8D9D",
"P 	c #BABABC",
"Q 	c #ACACB4",
"R 	c #ABABE6",
"S 	c #B3B3FF",
"T 	c #A0A0D9",
"U 	c #7E7E94",
"V 	c #9797A1",
"W 	c #B0B0B8",
"X 	c #9898E0",
"Y 	c #7777BE",
"Z 	c #73739B",
"` 	c #8C8C9B",
" .	c #B3B3B9",
"..	c #8C8CAA",
"+.	c #7979A1",
"@.	c #7F7FA4",
"#.	c #A8A8B4",
"$.	c #C2C2C0",
"%.	c #C0C0BF",
"&.	c #AAAAB8",
"*.	c #CCCCF5",
"=.	c #C5C5FF",
"-.	c #B2B2F9",
";.	c #9999BC",
">.	c #A0A0B5",
",.	c #C9C9F9",
"'.	c #C7C7FB",
").	c #AAAADA",
"!.	c #9090A9",
"~.	c #A1A1B7",
"{.	c #A8A8CA",
"].	c #9999AA",
"^.	c #858596",
"/.	c #8F8F9F",
"(.	c #B9B9BC",
"_.	c #A8A8AF",
":.	c #A3A3AA",
"<.	c #A4A4AC",
"[.	c #B5B5B8",
"        . + @ # # @ + .         ",
"      . $ % & * * = - ; .       ",
"    . > , ' ) ! ~ { ] ^ / .     ",
"    ( _ : < [ } | 1 2 3 4 5     ",
"  + 6 7 8 9 0 a b c d e f g .   ",
"  h i j k l m n o p q r s t +   ",
"    u v w x y z A B C D E   F   ",
"    F G H I J K L M N O P +     ",
"        + Q R S T U V h +       ",
"        + W X Y Z ` G .         ",
"        +  ...+.@.#.$.          ",
"        %.&.*.=.-.;.; F         ",
"        @ >.,.'.).!.I F         ",
"        $.~.{.].^./.  F         ",
"        . (._.:.<.[..           "};
