/* XPM */
static char * help_xpm[] = {
"16 15 126 2",
"  	c #C0C0C0",
". 	c #C1C0C0",
"+ 	c #BEBDBD",
"@ 	c #BBBABA",
"# 	c #BBBABB",
"$ 	c #BCBBBB",
"% 	c #C0BFBF",
"& 	c #C1C1C0",
"* 	c #BFBEBE",
"= 	c #BABABB",
"- 	c #C2C5CB",
"; 	c #CDD2DC",
"> 	c #CED5E3",
", 	c #CDD4E0",
"' 	c #C6CBD5",
") 	c #BABCC1",
"! 	c #BABABD",
"~ 	c #D1DAE7",
"{ 	c #D9ECFF",
"] 	c #CDE8FF",
"^ 	c #C7E4FF",
"/ 	c #D1E9FF",
"( 	c #D1E3F8",
"_ 	c #BDC3CF",
": 	c #BDBCBC",
"< 	c #C4CFDE",
"[ 	c #C6E6FF",
"} 	c #A5D1FC",
"| 	c #99B6D5",
"1 	c #97AAC0",
"2 	c #95BADE",
"3 	c #98C9FC",
"4 	c #ACD8FF",
"5 	c #BAD7F3",
"6 	c #B3B8C0",
"7 	c #C1C0BF",
"8 	c #B3B9C2",
"9 	c #B8D8FA",
"0 	c #AFD1F2",
"a 	c #91AFCC",
"b 	c #8691A0",
"c 	c #A3A3A9",
"d 	c #98ACC4",
"e 	c #89C5FC",
"f 	c #87C8FF",
"g 	c #80B9EA",
"h 	c #96AABF",
"i 	c #C3C0BE",
"j 	c #B3BBC5",
"k 	c #A0B3C7",
"l 	c #8C9CAB",
"m 	c #788897",
"n 	c #A0A5AC",
"o 	c #C5C0BD",
"p 	c #ADB9C9",
"q 	c #8BCBFF",
"r 	c #7CC4FF",
"s 	c #72A5CE",
"t 	c #8D9EAF",
"u 	c #C4C1C0",
"v 	c #BFBFBF",
"w 	c #BABABA",
"x 	c #B7B7B8",
"y 	c #B5B5B8",
"z 	c #BBB9B9",
"A 	c #C0C4CA",
"B 	c #ABD6F7",
"C 	c #7DCAFF",
"D 	c #7BB3DE",
"E 	c #748EA3",
"F 	c #A6AAB1",
"G 	c #C3C2C1",
"H 	c #C1C1C1",
"I 	c #C2C1C1",
"J 	c #B8CEE1",
"K 	c #96D5FF",
"L 	c #6CC0F9",
"M 	c #6B9EC3",
"N 	c #7F91A0",
"O 	c #A9ACB0",
"P 	c #C2BFBD",
"Q 	c #A5B9CA",
"R 	c #84D0FF",
"S 	c #69BEF8",
"T 	c #5C9BC5",
"U 	c #7D8E9C",
"V 	c #BAB8B9",
"W 	c #C4C3C2",
"X 	c #8DB4D0",
"Y 	c #49A1DB",
"Z 	c #4488B5",
"` 	c #477A9B",
" .	c #ADAFB4",
"..	c #C5C4C2",
"+.	c #C2C0BF",
"@.	c #ABB6C0",
"#.	c #8CA7BE",
"$.	c #89A3BB",
"%.	c #8CA6BD",
"&.	c #B7BBBF",
"*.	c #C2BDBA",
"=.	c #9AC0D9",
"-.	c #70CBFF",
";.	c #64C6FF",
">.	c #54B7F4",
",.	c #9DB0BF",
"'.	c #C4C1BF",
").	c #C4BDBA",
"!.	c #8EBDDA",
"~.	c #59C4FF",
"{.	c #4DB6F4",
"].	c #3996CE",
"^.	c #95A7B6",
"/.	c #C6C2C0",
"(.	c #C3BEBD",
"_.	c #96B8CF",
":.	c #66A1C3",
"<.	c #5E8AA5",
"[.	c #507E9A",
"}.	c #9BA9B4",
"|.	c #C5C3C1",
"1.	c #B8BABC",
"2.	c #AFB1B5",
"3.	c #AFB1B4",
"4.	c #B0B2B6",
"5.	c #BDBDBE",
"        . + @ # @ $ % &         ",
"      * = - ; > , ' ) $ .       ",
"    % ! ~ { ] ^ ^ / ( _ :       ",
"    @ < [ } | 1 2 3 4 5 6 7     ",
"  7 8 9 0 a b c d e f g h i     ",
"  7 j k l m n o p q r s t u     ",
"    v w x y z A B C D E F G     ",
"      H I * J K L M N O &       ",
"        P Q R S T U V W         ",
"        o X Y Z `  ...          ",
"        +.@.#.$.%.&.&           ",
"        *.=.-.;.>.,.'.          ",
"        ).!.~.{.].^./.          ",
"        (._.:.<.[.}.|.          ",
"        . 1.2.3.4.5..           "};
