/* XPM */
static char * TBB_HELP_LARGE_xpm[] = {
"32 32 297 2",
"  	c None",
". 	c #BEBEBF",
"+ 	c #B9B9BB",
"@ 	c #B1B1B6",
"# 	c #AAAAB1",
"$ 	c #A7A7AF",
"% 	c #BBBBBD",
"& 	c #ABABB2",
"* 	c #9595A3",
"= 	c #8B8BA3",
"- 	c #8989A8",
"; 	c #9898BA",
"> 	c #9494B9",
", 	c #9797BA",
"' 	c #8A8AA3",
") 	c #ADADB3",
"! 	c #BCBCBD",
"~ 	c #BFBFC0",
"{ 	c #B5B5B8",
"] 	c #9393A2",
"^ 	c #9393B4",
"/ 	c #C0C0E4",
"( 	c #DADAFF",
"_ 	c #D7D7FF",
": 	c #D6D6FF",
"< 	c #D5D5FF",
"[ 	c #D4D4FF",
"} 	c #B9B9E4",
"| 	c #8A8AAE",
"1 	c #9797A5",
"2 	c #B5B5B9",
"3 	c #8D8DA1",
"4 	c #B8B8DB",
"5 	c #CECEFF",
"6 	c #C0C0FF",
"7 	c #B2B2FF",
"8 	c #B0B0FF",
"9 	c #B9B9FF",
"0 	c #BEBEFF",
"a 	c #C2C2FF",
"b 	c #C7C7FF",
"c 	c #CCCCFF",
"d 	c #CDCDFF",
"e 	c #A2A2D2",
"f 	c #8B8BA2",
"g 	c #BABABC",
"h 	c #9292A1",
"i 	c #B7B7DB",
"j 	c #D8D8FF",
"k 	c #CFCFFF",
"l 	c #8B8BFF",
"m 	c #7474FF",
"n 	c #9494FF",
"o 	c #8C8CFB",
"p 	c #5C5CFC",
"q 	c #6F6FFF",
"r 	c #7979FF",
"s 	c #8787FF",
"t 	c #9A9AFF",
"u 	c #B1B1FF",
"v 	c #C1C1FF",
"w 	c #9999DB",
"x 	c #9595BA",
"y 	c #C9C9FF",
"z 	c #9F9FFF",
"A 	c #6767FF",
"B 	c #8F8FF6",
"C 	c #AAAAE3",
"D 	c #A1A1D3",
"E 	c #9A9ACC",
"F 	c #7777D3",
"G 	c #5353E2",
"H 	c #5757F2",
"I 	c #5D5DFD",
"J 	c #6363FF",
"K 	c #7070FF",
"L 	c #9D9DFA",
"M 	c #6262B3",
"N 	c #A8A8B0",
"O 	c #8A8A9C",
"P 	c #BBBBF6",
"Q 	c #8989FF",
"R 	c #6868FF",
"S 	c #8282F5",
"T 	c #A1A1DB",
"U 	c #9393BD",
"V 	c #8181A5",
"W 	c #7575A0",
"X 	c #5C5CB1",
"Y 	c #4F4FCF",
"Z 	c #5656E9",
"` 	c #5C5CF9",
" .	c #5F5FFF",
"..	c #6161FF",
"+.	c #6161FA",
"@.	c #5B5BED",
"#.	c #5D5DD1",
"$.	c #9090A0",
"%.	c #BEBEBE",
"&.	c #B0B0B5",
"*.	c #7272AF",
"=.	c #7B7BFF",
"-.	c #8A8AFF",
";.	c #A7A7FD",
">.	c #A2A2ED",
",.	c #A1A1DA",
"'.	c #9292BB",
").	c #78789A",
"!.	c #5C5C80",
"~.	c #777791",
"{.	c #7C7C93",
"].	c #5353A3",
"^.	c #5C5CF1",
"/.	c #6262FE",
"(.	c #6262FF",
"_.	c #6666F6",
":.	c #8080E3",
"<.	c #8686CF",
"[.	c #74749D",
"}.	c #B7B7BA",
"|.	c #A6A6AF",
"1.	c #6262C1",
"2.	c #7878FB",
"3.	c #A0A0DF",
"4.	c #A1A1CE",
"5.	c #9A9AC3",
"6.	c #8E8EB4",
"7.	c #79799B",
"8.	c #5B5B81",
"9.	c #9696A4",
"0.	c #B8B8BB",
"a.	c #858599",
"b.	c #6A6AE4",
"c.	c #6E6EFF",
"d.	c #6A6AFF",
"e.	c #6B6BFF",
"f.	c #7A7AF2",
"g.	c #9C9CD8",
"h.	c #9191BE",
"i.	c #717199",
"j.	c #B4B4B8",
"k.	c #6868BE",
"l.	c #7272BB",
"m.	c #8787B0",
"n.	c #8080A2",
"o.	c #7B7B9B",
"p.	c #747493",
"q.	c #62628C",
"r.	c #717192",
"s.	c #818196",
"t.	c #8383ED",
"u.	c #7A7AFF",
"v.	c #7373FF",
"w.	c #7E7EFC",
"x.	c #9F9FE7",
"y.	c #9E9EC6",
"z.	c #8888AC",
"A.	c #797997",
"B.	c #8B8B9D",
"C.	c #808095",
"D.	c #74748F",
"E.	c #69698A",
"F.	c #666696",
"G.	c #A1A1AB",
"H.	c #BDBDBE",
"I.	c #8E8E9F",
"J.	c #9D9DC9",
"K.	c #A5A5FF",
"L.	c #8282FF",
"M.	c #8888FF",
"N.	c #A7A7F0",
"O.	c #A8A8D3",
"P.	c #8D8DAE",
"Q.	c #787896",
"R.	c #AFAFB5",
"S.	c #AEAEB4",
"T.	c #8A8A9F",
"U.	c #BBBBDB",
"V.	c #DBDBFF",
"W.	c #AFAFFF",
"X.	c #9393FF",
"Y.	c #B3B3F6",
"Z.	c #AEAED8",
"`.	c #9191B3",
" +	c #7A7A95",
".+	c #6C6C8A",
"++	c #ACACB2",
"@+	c #A9A9B1",
"#+	c #8A8AA5",
"$+	c #C6C6E4",
"%+	c #DEDEFF",
"&+	c #8484FF",
"*+	c #BABAF7",
"=+	c #AFAFD7",
"-+	c #9393B3",
";+	c #797993",
">+	c #656582",
",+	c #9A9AA6",
"'+	c #8787A3",
")+	c #D8D8F6",
"!+	c #DFDFFF",
"~+	c #D0D0FF",
"{+	c #9999FF",
"]+	c #B3B3F4",
"^+	c #ACACD2",
"/+	c #8F8FAE",
"(+	c #777790",
"_+	c #63637F",
":+	c #A0A0FF",
"<+	c #9F9FF4",
"[+	c #ABABD1",
"}+	c #8E8EAB",
"|+	c #76768D",
"1+	c #636380",
"2+	c #9898A5",
"3+	c #9292B9",
"4+	c #D3D3FF",
"5+	c #BFBFFF",
"6+	c #A3A3FA",
"7+	c #ADADDB",
"8+	c #9595B2",
"9+	c #77778E",
"0+	c #6D6D88",
"a+	c #A3A3AC",
"b+	c #A6A6ED",
"c+	c #A1A1FF",
"d+	c #ACACFF",
"e+	c #B2B2F0",
"f+	c #ABABD9",
"g+	c #9B9BBA",
"h+	c #828299",
"i+	c #6B6B87",
"j+	c #8D8D9E",
"k+	c #BDBDFF",
"l+	c #8D8DF0",
"m+	c #8989D5",
"n+	c #8282C3",
"o+	c #7E7EB2",
"p+	c #7E7E9D",
"q+	c #6D6D87",
"r+	c #BEBEF2",
"s+	c #8282D2",
"t+	c #6D6DB9",
"u+	c #6666AC",
"v+	c #6464A2",
"w+	c #707099",
"x+	c #797992",
"y+	c #ADADB4",
"z+	c #848498",
"A+	c #9E9EA9",
"B+	c #A5A5B1",
"C+	c #9393B1",
"D+	c #7F7FA8",
"E+	c #7D7DA8",
"F+	c #7C7CA8",
"G+	c #8484AA",
"H+	c #9898AD",
"I+	c #9898B1",
"J+	c #CACAFF",
"K+	c #9D9DD1",
"L+	c #A0A0AB",
"M+	c #B2B2B7",
"N+	c #8D8DA8",
"O+	c #E4E4FF",
"P+	c #DCDCFF",
"Q+	c #ACACF7",
"R+	c #8585C1",
"S+	c #9898A6",
"T+	c #BCBCFF",
"U+	c #AEAEFF",
"V+	c #A8A8F7",
"W+	c #A6A6DB",
"X+	c #8585B0",
"Y+	c #8181A8",
"Z+	c #D1D1F1",
"`+	c #C7C7E6",
" @	c #BBBBD7",
".@	c #A8A8C0",
"+@	c #8787A2",
"@@	c #8080A8",
"#@	c #C6C6F4",
"$@	c #BFBFD8",
"%@	c #AFAFC5",
"&@	c #A7A7BC",
"*@	c #9D9DB1",
"=@	c #9090A3",
"-@	c #7E7E96",
";@	c #8B8BAE",
">@	c #A7A7CE",
",@	c #9999AD",
"'@	c #888899",
")@	c #818191",
"!@	c #7D7D8D",
"~@	c #7B7B8B",
"{@	c #7A7A91",
"]@	c #9F9FAA",
"^@	c #B6B6BA",
"                                                                ",
"                                                                ",
"                      . + @ # $ $ # @ + .                       ",
"                  % & * = - ; > > , - ' * ) !                   ",
"              ~ { ] ^ / ( _ : < [ < [ [ } | 1 2 ~               ",
"              { 3 4 ( : 5 6 7 8 9 0 a b c d e f {               ",
"            g h i j k 9 l m n o p q r s t u v w h g             ",
"            $ x : y z A B C D E F G H I J K l L M N             ",
"          ! O P 9 Q R S T U V W X Y Z `  ...+.@.#.$.%.          ",
"          &.*.=.-.;.>.,.'.).!.~.{.].^./.(.J _.:.<.[.}.          ",
"          |.1.2.3.4.5.6.7.8.9.0.+ a.b.c.d.e.f.g.h.i.j.          ",
"          & k.l.m.n.o.p.q.r.{   0.s.t.u.v.w.x.y.z.A.}.          ",
"          + $ 9.B.C.D.E.F.G.H.{ I.J.K.L.M.N.O.P.Q.h %.          ",
"                ~ % { R.&.}.S.T.U.V.W.X.Y.Z.`. +.+++            ",
"                        %.@+#+$+%+5 &+*+=+-+;+>+,+!             ",
"                      ~ ) '+)+!+~+{+]+^+/+(+_+] 0.              ",
"                      0.3 )+%+d :+<+[+}+|+1+2+0.                ",
"                      $ 3+4+5+X.6+7+8+9+0+a+%                   ",
"                      * b+c+d+e+f+g+h+i+@+%.                    ",
"                      j+k+l+m+n+o+p+q+* %.                      ",
"                      2+r+s+t+u+v+w+x+&                         ",
"                    ~ y+j+{.{.{.{.z+A+}.                        ",
"                    % B+C+D+E+E+F+G+H+@                         ",
"                    { I+!+J+a 6 9 u K+L+                        ",
"                    M+N+O+P+< [ d Q+R+S+                        ",
"                    M+- ~+T+7 U+V+W+X+S+                        ",
"                    M+Y+J+( Z+`+ @.@+@S+                        ",
"                    M+@@#@$@%@&@*@=@-@S+                        ",
"                    2 ;@>@,@'@)@!@~@{@a+                        ",
"                    H.++* O O O O I.]@^@                        ",
"                                                                ",
"                                                                "};
