/* XPM */
static char * help_large_xpm[] = {
"32 32 311 2",
"  	c #C0C0C0",
". 	c #BFBFC0",
"+ 	c #BEBEBE",
"@ 	c #BCBCBD",
"# 	c #BBBBBD",
"$ 	c #BEBEBF",
"% 	c #B9B9BB",
"& 	c #B4B4B8",
"* 	c #AEAEB4",
"= 	c #B1B2BB",
"- 	c #B6B9C4",
"; 	c #B5B8C4",
"> 	c #BFBFBF",
", 	c #BABABC",
"' 	c #AFAFB5",
") 	c #BDC2CD",
"! 	c #CDD5E2",
"~ 	c #E4F0FF",
"{ 	c #E3F0FF",
"] 	c #E2EFFF",
"^ 	c #E0EFFF",
"/ 	c #E0EEFF",
"( 	c #E0EDFF",
"_ 	c #C9D3E2",
": 	c #B9C0CD",
"< 	c #B0B0B5",
"[ 	c #B8B8BB",
"} 	c #B3B6BF",
"| 	c #DBE6F3",
"1 	c #E1EEFF",
"2 	c #DDECFF",
"3 	c #D9EAFF",
"4 	c #D4E8FF",
"5 	c #D3E8FF",
"6 	c #D5E8FF",
"7 	c #D8EAFF",
"8 	c #D9EBFF",
"9 	c #CCDBEE",
"0 	c #B1B5C0",
"a 	c #DEEAF9",
"b 	c #DFEEFF",
"c 	c #D7E9FF",
"d 	c #CBE4FF",
"e 	c #BFDDFF",
"f 	c #ABD3FF",
"g 	c #B1D7FF",
"h 	c #B2D6FF",
"i 	c #A5CFFF",
"j 	c #B7DAFF",
"k 	c #C0DFFF",
"l 	c #CAE3FF",
"m 	c #D0E7FF",
"n 	c #D3E9FF",
"o 	c #CEE3F9",
"p 	c #AFB4BF",
"q 	c #BDBDBE",
"r 	c #B0B1B9",
"s 	c #D8E4F3",
"t 	c #C6E1FF",
"u 	c #B3D8FF",
"v 	c #A5D1FF",
"w 	c #A3C9F2",
"x 	c #B0C7E1",
"y 	c #ACC1D7",
"z 	c #ACC7E2",
"A 	c #9AC4EF",
"B 	c #9CCBFB",
"C 	c #A4D1FF",
"D 	c #C1E0FF",
"E 	c #CAE5FF",
"F 	c #C1D8F1",
"G 	c #ADB0B8",
"H 	c #B8B8BA",
"I 	c #B9C2D1",
"J 	c #D2E7FF",
"K 	c #BADBFF",
"L 	c #A6D1FF",
"M 	c #9ECEFF",
"N 	c #95C0EB",
"O 	c #99B3D0",
"P 	c #92A3B6",
"Q 	c #8798A9",
"R 	c #8C9EB0",
"S 	c #94ADC6",
"T 	c #8DB7E0",
"U 	c #8FC1F3",
"V 	c #94C8FD",
"W 	c #96CBFF",
"X 	c #9DCFFF",
"Y 	c #AFD6FA",
"Z 	c #B6D3EE",
"` 	c #A0B1C6",
" .	c #B3D6F9",
"..	c #BADCFF",
"+.	c #B9DCFF",
"@.	c #AFD7FF",
"#.	c #A0C7ED",
"$.	c #94B4D2",
"%.	c #879CAF",
"&.	c #798696",
"*.	c #8A909D",
"=.	c #979CA9",
"-.	c #909EB2",
";.	c #85B1DD",
">.	c #8AC2F6",
",.	c #8DC8FE",
"'.	c #8DC8FF",
").	c #8DC9FF",
"!.	c #8EC4F5",
"~.	c #99C0E3",
"{.	c #8DACCA",
"].	c #B2B2B7",
"^.	c #A5B2C4",
"/.	c #B8DBFF",
"(.	c #C3E1FD",
"_.	c #B5CFE8",
":.	c #AAC4DB",
"<.	c #9FB6CD",
"[.	c #8A9EB2",
"}.	c #778796",
"|.	c #A2A3AD",
"1.	c #B7B7BA",
"2.	c #94ACCA",
"3.	c #8CC9FF",
"4.	c #8AC8FF",
"5.	c #87C7FF",
"6.	c #84C5FE",
"7.	c #7CBAF0",
"8.	c #72A9D8",
"9.	c #6697C2",
"0.	c #A1B9D3",
"a.	c #AAC9E6",
"b.	c #9BB2C8",
"c.	c #8EA4B8",
"d.	c #889DB0",
"e.	c #8094A6",
"f.	c #728595",
"g.	c #828B9A",
"h.	c #B5B5B8",
"i.	c #9DACC1",
"j.	c #91CDFF",
"k.	c #88C9FF",
"l.	c #80C6FF",
"m.	c #7CC1FB",
"n.	c #77B5E8",
"o.	c #79A5C9",
"p.	c #6790B2",
"q.	c #AEB4BD",
"r.	c #A2A9B6",
"s.	c #929DAB",
"t.	c #8B95A3",
"u.	c #7F8D9B",
"v.	c #798796",
"w.	c #6D7F90",
"x.	c #949DAA",
"y.	c #ADADB4",
"z.	c #A1C6E8",
"A.	c #93CEFF",
"B.	c #84C8FF",
"C.	c #7BC5FF",
"D.	c #79BDF4",
"E.	c #7FB1D9",
"F.	c #7E9EB6",
"G.	c #708CA4",
"H.	c #B3B3B7",
"I.	c #AFB1B8",
"J.	c #BACFE2",
"K.	c #A5D7FF",
"L.	c #8ACBFF",
"M.	c #7AC5FF",
"N.	c #78C1FA",
"O.	c #84B9E2",
"P.	c #85A6BF",
"Q.	c #708A9F",
"R.	c #8191A2",
"S.	c #ADB1BB",
"T.	c #C6DBEE",
"U.	c #C2E4FF",
"V.	c #94D1FF",
"W.	c #78C6FF",
"X.	c #75C3FD",
"Y.	c #85BBE3",
"Z.	c #85A8C2",
"`.	c #6F8A9F",
" +	c #6D8192",
".+	c #A8ABB2",
"++	c #ADB3BE",
"@+	c #CBE5F9",
"#+	c #C3E6FF",
"$+	c #9DD5FF",
"%+	c #75C5FF",
"&+	c #6EC0FD",
"*+	c #83B9E1",
"=+	c #81A5BF",
"-+	c #6B889D",
";+	c #61798A",
">+	c #9FA3AC",
",+	c #AEB4BF",
"'+	c #C9E4F9",
")+	c #BDE3FF",
"!+	c #96D3FF",
"~+	c #6EC3FF",
"{+	c #5FBAFB",
"]+	c #75B2DE",
"^+	c #7CA1BB",
"/+	c #678499",
"(+	c #667B8C",
"_+	c #A5A7AE",
":+	c #C0DDF3",
"<+	c #B4E0FF",
"[+	c #88CEFF",
"}+	c #65C0FF",
"|+	c #55B8FC",
"1+	c #5BAADF",
"2+	c #729DBB",
"3+	c #648398",
"4+	c #6E8091",
"5+	c #A7A9B0",
"6+	c #A2B8CD",
"7+	c #A0D9FF",
"8+	c #73C6FF",
"9+	c #6DC4FF",
"0+	c #62BFFF",
"a+	c #5EB1EA",
"b+	c #669FC6",
"c+	c #64879F",
"d+	c #738495",
"e+	c #B5B5B9",
"f+	c #80B4DC",
"g+	c #81CDFF",
"h+	c #86CFFF",
"i+	c #7FC5F4",
"j+	c #76B7E3",
"k+	c #6EA6CC",
"l+	c #638EA9",
"m+	c #6F8597",
"n+	c #63B1E8",
"o+	c #58B7F6",
"p+	c #51A4DA",
"q+	c #4B97C9",
"r+	c #458EBC",
"s+	c #4180A9",
"t+	c #467593",
"u+	c #949BA8",
"v+	c #B6B6BA",
"w+	c #5EAEE3",
"x+	c #3299DB",
"y+	c #2C85BF",
"z+	c #287CB1",
"A+	c #2575A8",
"B+	c #236E9D",
"C+	c #2C6E98",
"D+	c #B1B1B6",
"E+	c #ABABB2",
"F+	c #A9A9B1",
"G+	c #96B1C7",
"H+	c #8DAAC4",
"I+	c #8AA9C4",
"J+	c #88A8C4",
"K+	c #86A7C4",
"L+	c #83A6C4",
"M+	c #87A8C2",
"N+	c #ACB4BC",
"O+	c #82D0FF",
"P+	c #71C9FF",
"Q+	c #69C6FF",
"R+	c #65C5FF",
"S+	c #5DC2FF",
"T+	c #51BDFF",
"U+	c #50BCFC",
"V+	c #88A7C0",
"W+	c #94D7FF",
"X+	c #8BD4FF",
"Y+	c #83D1FF",
"Z+	c #7FCFFF",
"`+	c #79CDFF",
" @	c #6DC9FF",
".@	c #5BB2E7",
"+@	c #82A0B9",
"@@	c #49BAFF",
"#@	c #3CB6FF",
"$@	c #2FB2FF",
"%@	c #27AEFF",
"&@	c #1DABFF",
"*@	c #199CEA",
"=@	c #1489CD",
"-@	c #7C9AB4",
";@	c #84D2FF",
">@	c #7ECFFF",
",@	c #75C3F2",
"'@	c #71BDEA",
")@	c #6CB6E1",
"!@	c #61A4CC",
"~@	c #478DB6",
"{@	c #7E99B0",
"]@	c #7DCCFA",
"^@	c #73B6DD",
"/@	c #68A4C7",
"(@	c #629CBE",
"_@	c #5F97B7",
":@	c #568BA9",
"<@	c #457E9F",
"[@	c #7E97AD",
"}@	c #6AAFD6",
"|@	c #5C93B3",
"1@	c #50809C",
"2@	c #4A7892",
"3@	c #49758F",
"4@	c #45718A",
"5@	c #3D718F",
"6@	c #839CAF",
"                                                                ",
"                        . + @ # @ + .                           ",
"                  $ % & * = - ; - = * & % $                     ",
"              > , ' ) ! ~ { ] ] ^ / ( _ : < , >                 ",
"            > [ } | { 1 2 3 4 5 6 7 8 8 8 9 0 [ >               ",
"          . , } a b c d e f g h i j k l m n o p , .             ",
"          q r s 8 t u v w x y y z A B C g D E F G q             ",
"          H I J K L M N O P Q R S T U V W X Y Z ` [             ",
"        > *  ...+.@.#.$.%.&.*.=.-.;.>.,.'.).!.~.{.].            ",
"        # ^./.(._.:.<.[.}.|.1., ].2.3.4.5.6.7.8.9.'             ",
"        , 0.a.b.c.d.e.f.g.h..   % i.j.k.l.m.n.o.p.'             ",
"        q q.r.s.t.u.v.w.x., . q y.z.A.B.C.D.E.F.G.].            ",
"        . + # % 1.h.].H.% + , I.J.K.L.M.N.O.P.Q.R.[             ",
"                        > % S.T.U.V.W.X.Y.Z.`. +.+q             ",
"                      > [ ++@+#+$+%+&+*+=+-+;+>+, .             ",
"                      , ,+'+)+!+~+{+]+^+/+(+_+, .               ",
"                    $ ' :+<+[+}+|+1+2+3+4+5+# .                 ",
"                    , 6+7+8+9+0+a+b+c+d+< q .                   ",
"                    e+f+g+h+i+j+k+l+m+' q                       ",
"                    & n+o+p+q+r+s+t+u+#                         ",
"                    v+w+x+y+z+A+B+C+D+>                         ",
"                    # D+E+F+F+F+F+* , .                         ",
"                    % G+H+I+J+K+L+M+N+$                         ",
"                    D+O+P+Q+R+S+T+U+V+@                         ",
"                    * W+X+Y+Z+`+ @.@+@#                         ",
"                    * @@#@$@%@&@*@=@-@#                         ",
"                    * ;@>@,@'@)@!@~@{@#                         ",
"                    * ]@^@/@(@_@:@<@[@#                         ",
"                    ].}@|@1@2@3@4@5@6@q                         ",
"                    # ].* * * * * D+% >                         ",
"                                                                ",
"                                                                "};
