/* XPM */
static char * library_xpm[] = {
"16 16 130 2",
"  	c None",
". 	c #F70000",
"+ 	c #FF0000",
"@ 	c #DE0000",
"# 	c #C60000",
"$ 	c #52249C",
"% 	c #940C39",
"& 	c #CE0400",
"* 	c #CE0000",
"= 	c #CE3808",
"- 	c #D69E21",
"; 	c #2124D6",
"> 	c #0808CE",
", 	c #0000CE",
"' 	c #0004CE",
") 	c #420C8C",
"! 	c #A50431",
"~ 	c #D62808",
"{ 	c #CE8A10",
"] 	c #C6CB00",
"^ 	c #C6CF00",
"/ 	c #CECB08",
"( 	c #CECF21",
"_ 	c #0808AD",
": 	c #0000C6",
"< 	c #0000D6",
"[ 	c #0018C6",
"} 	c #187D52",
"| 	c #5AC718",
"1 	c #BDD310",
"2 	c #D6CB00",
"3 	c #C6C700",
"4 	c #CECF00",
"5 	c #DEDB08",
"6 	c #000084",
"7 	c #000094",
"8 	c #0000BD",
"9 	c #080CCE",
"0 	c #29618C",
"a 	c #10B621",
"b 	c #00D300",
"c 	c #00CB00",
"d 	c #21C710",
"e 	c #8CC729",
"f 	c #D6CF10",
"g 	c #DEDB00",
"h 	c #E7E300",
"i 	c #DEDF00",
"j 	c #00008C",
"k 	c #21615A",
"l 	c #10D308",
"m 	c #00D700",
"n 	c #00C700",
"o 	c #00CF00",
"p 	c #08DF18",
"q 	c #7BE329",
"r 	c #085D29",
"s 	c #009200",
"t 	c #00AE00",
"u 	c #08D308",
"v 	c #08E308",
"w 	c #00E700",
"x 	c #00E300",
"y 	c #31DF00",
"z 	c #E7DF00",
"A 	c #E7E700",
"B 	c #101C7B",
"C 	c #008A00",
"D 	c #007D00",
"E 	c #009A00",
"F 	c #00DF00",
"G 	c #39DF00",
"H 	c #EFE700",
"I 	c #EFEB00",
"J 	c #CECB31",
"K 	c #088210",
"L 	c #105142",
"M 	c #08107B",
"N 	c #005D29",
"O 	c #008E00",
"P 	c #008200",
"Q 	c #39E300",
"R 	c #CEC721",
"S 	c #736D8C",
"T 	c #1818DE",
"U 	c #008600",
"V 	c #087910",
"W 	c #397918",
"X 	c #188608",
"Y 	c #29E708",
"Z 	c #6BB639",
"` 	c #1814CE",
" .	c #0000EF",
"..	c #0000E7",
"+.	c #6B8600",
"@.	c #848608",
"#.	c #428210",
"$.	c #088E08",
"%.	c #08D708",
"&.	c #6BE318",
"*.	c #DEEB00",
"=.	c #B5A639",
"-.	c #0000DE",
";.	c #189A18",
">.	c #638600",
",.	c #8C8600",
"'.	c #8C8200",
").	c #738E08",
"!.	c #B5D710",
"~.	c #EFE300",
"{.	c #F7EB00",
"].	c #A5A631",
"^.	c #0004E7",
"/.	c #292CE7",
"(.	c #298E31",
"_.	c #6B8608",
":.	c #848200",
"<.	c #948E00",
"[.	c #DED700",
"}.	c #ADAE39",
"|.	c #4A4DE7",
"1.	c #99CCFF",
"2.	c #949621",
"3.	c #848600",
"4.	c #8C8A00",
"5.	c #D6D700",
"6.	c #E7E339",
"7.	c #9C9E10",
"8.	c #DEDF21",
"9.	c #FFFF33",
"              . .               ",
"          + @ # # @ .           ",
"        $ % & * # # = -         ",
"    ; > , ' ) ! ~ { ] ^ / (     ",
"  _ : , : < [ } | 1 2 3 3 4 5   ",
"  6 7 8 9 0 a b c d e f g h i   ",
"  6 6 j k l m c n o p q h i i   ",
"  j 6 j r s t u v w x y z i A   ",
"  B j j r C D E F x F G H I J   ",
"  K L M N O P C m x F Q R S T   ",
"  U O V W X P O m x Y Z `  ...  ",
"  P U C +.@.#.$.%.&.*.=. .-.-.  ",
"  ;.C U >.,.'.).!.~.{.]...^./.  ",
"      (._.'.:.<.[.h A }.|.1.    ",
"          2.3.4.5.h 6.          ",
"              7.8.9.            "};
