/* XPM */
static char * module_xpm[] = {
"16 16 94 2",
"  	c None",
". 	c #C7C7C7",
"+ 	c #CDC7CD",
"@ 	c #CBCBCB",
"# 	c #C8C8C8",
"$ 	c #C9C7C9",
"% 	c #D1C7D1",
"& 	c #B3C7B3",
"* 	c #C6C6C6",
"= 	c #909090",
"- 	c #AEAEAE",
"; 	c #D0CAD0",
"> 	c #CEC6CE",
", 	c #89C789",
"' 	c #1CC71C",
") 	c #CDC6CD",
"! 	c #CCC5CC",
"~ 	c #D0D0D0",
"{ 	c #DADADA",
"] 	c #828282",
"^ 	c #838383",
"/ 	c #989498",
"( 	c #A9BAA9",
"_ 	c #56CF56",
": 	c #04C804",
"< 	c #00C600",
"[ 	c #04C504",
"} 	c #55CA55",
"| 	c #BECFBE",
"1 	c #DCD8DC",
"2 	c #DFDFDF",
"3 	c #858585",
"4 	c #868086",
"5 	c #368A36",
"6 	c #00B400",
"7 	c #05D205",
"8 	c #05CE05",
"9 	c #05C905",
"0 	c #05D705",
"a 	c #00E200",
"b 	c #53E053",
"c 	c #E5DFE5",
"d 	c #DFDEDF",
"e 	c #DEDEDE",
"f 	c #868586",
"g 	c #888588",
"h 	c #2B832B",
"i 	c #008100",
"j 	c #019B01",
"k 	c #09C809",
"l 	c #09E509",
"m 	c #02E602",
"n 	c #00DF00",
"o 	c #37DE37",
"p 	c #E3DEE3",
"q 	c #898589",
"r 	c #2D852D",
"s 	c #008400",
"t 	c #007E00",
"u 	c #008E00",
"v 	c #00DA00",
"w 	c #00E000",
"x 	c #00DE00",
"y 	c #38DE38",
"z 	c #2A852A",
"A 	c #008500",
"B 	c #008200",
"C 	c #008B00",
"D 	c #00D600",
"E 	c #00E100",
"F 	c #39DE39",
"G 	c #668566",
"H 	c #238523",
"I 	c #008C00",
"J 	c #00D700",
"K 	c #3CDE3C",
"L 	c #ADDEAD",
"M 	c #8B858B",
"N 	c #548254",
"O 	c #158C15",
"P 	c #22D722",
"Q 	c #8BE18B",
"R 	c #E8DEE8",
"S 	c #878587",
"T 	c #8A828A",
"U 	c #7F8C7F",
"V 	c #C5D7C5",
"W 	c #ECE1EC",
"X 	c #E1DEE1",
"Y 	c #908C90",
"Z 	c #DCD7DC",
"` 	c #E1E1E1",
" .	c #8C8C8C",
"..	c #D7D7D7",
"              . .               ",
"          . . . . . .           ",
"      . . . . + + . . . .       ",
"    @ # . $ % & & % $ . . *     ",
"  = - . ; > , ' ' , ) ! . ~ {   ",
"  ] ^ / ( _ : < < [ } | 1 2 2   ",
"  3 3 4 5 6 7 8 9 0 a b c d e   ",
"  3 f g h i j k l m n o p d e   ",
"  3 f q r s t u v w x y p d e   ",
"  3 f g z A B C D E x F p d e   ",
"  3 3 g G H B I J E K L p e e   ",
"  3 3 3 M 3 N O P Q e R e e e   ",
"  3 3 3 3 S T U V W X e e e e   ",
"      3 3 3 ] Y Z ` e e e       ",
"          3 ]  ...` e           ",
"               ...              "};
