/* XPM */
static char * open_xpm[] = {
"16 15 129 2",
"  	c #C0C0C0",
". 	c #C7C7BF",
"+ 	c #C8C8BE",
"@ 	c #DCDCDC",
"# 	c #E4E4E4",
"$ 	c #E8E8E8",
"% 	c #EAE9E7",
"& 	c #F1EFE9",
"* 	c #F0EBDA",
"= 	c #E0C886",
"- 	c #EBC766",
"; 	c #D5C08B",
"> 	c #C4C4BF",
", 	c #C8C8BF",
"' 	c #E4E4BB",
") 	c #FCFCB1",
"! 	c #F9F8AB",
"~ 	c #FBFAF6",
"{ 	c #FFFFFF",
"] 	c #FFFAEC",
"^ 	c #FECC45",
"/ 	c #FAC336",
"( 	c #E9CB6F",
"_ 	c #DDD8AD",
": 	c #F6F6AE",
"< 	c #DADABC",
"[ 	c #F2F2B8",
"} 	c #FFFFAE",
"| 	c #FFFDA4",
"1 	c #FFFDEC",
"2 	c #FFFBF0",
"3 	c #FED04E",
"4 	c #FEDD66",
"5 	c #FFED86",
"6 	c #FFFB9F",
"7 	c #FBFBB0",
"8 	c #CACABF",
"9 	c #E1E1B9",
"0 	c #FFFEA9",
"a 	c #FFF99E",
"b 	c #FFFCE7",
"c 	c #FFF9EA",
"d 	c #FFECB4",
"e 	c #FFE06A",
"f 	c #FFEC81",
"g 	c #FFF492",
"h 	c #FFFCA4",
"i 	c #ECECB6",
"j 	c #D0D0BB",
"k 	c #FEFCA5",
"l 	c #FFF79A",
"m 	c #FFFCE1",
"n 	c #FEFAEB",
"o 	c #FBE9B3",
"p 	c #F8D26E",
"q 	c #FBCC4D",
"r 	c #FFD557",
"s 	c #FFE06C",
"t 	c #FFEA81",
"u 	c #FFF697",
"v 	c #FFFFA9",
"w 	c #D9D9BC",
"x 	c #C2C2BF",
"y 	c #F4F0A5",
"z 	c #FFF595",
"A 	c #FEF2CE",
"B 	c #ECB219",
"C 	c #EFB619",
"D 	c #F6C130",
"E 	c #FDCC45",
"F 	c #FFD75B",
"G 	c #FFE371",
"H 	c #FFEE86",
"I 	c #FAFAB0",
"J 	c #C9C9BF",
"K 	c #E2DEAC",
"L 	c #FFF28F",
"M 	c #FFF9D6",
"N 	c #F9DE8A",
"O 	c #ECAF0C",
"P 	c #F2BA22",
"Q 	c #F8C335",
"R 	c #FED04C",
"S 	c #FFDB62",
"T 	c #FFE676",
"U 	c #FFF390",
"V 	c #FFF99D",
"W 	c #ECE29D",
"X 	c #D2CEB3",
"Y 	c #FFF08A",
"Z 	c #FFF5C5",
"` 	c #F3CA53",
" .	c #ECB10F",
"..	c #F4BD27",
"+.	c #FBC73B",
"@.	c #FFD250",
"#.	c #FFEA7E",
"$.	c #F6E485",
"%.	c #DDCD94",
"&.	c #C5C1B5",
"*.	c #C3C3BD",
"=.	c #F5E68E",
"-.	c #FEE99A",
";.	c #F0BB2F",
">.	c #EDB313",
",.	c #F4BE2A",
"'.	c #FCCA41",
").	c #FFD456",
"!.	c #F5D770",
"~.	c #DAC992",
"{.	c #C4C1B7",
"].	c #E4D89C",
"^.	c #FADA65",
"/.	c #ECB112",
"(.	c #EFB71B",
"_.	c #F7C131",
":.	c #F2C85B",
"<.	c #D8C592",
"[.	c #C3C1BA",
"}.	c #D2CBAC",
"|.	c #F8C941",
"1.	c #EBAF0D",
"2.	c #E9BE47",
"3.	c #D4C18F",
"4.	c #C2C0BB",
"5.	c #C6C3B8",
"6.	c #E0C16A",
"7.	c #D1BC83",
"8.	c #C2C0BC",
"                                ",
"                                ",
"  . + @ # # $ % & * = - ;   > , ",
"' ) ! ~ { { { { { ] ^ / ( _ : < ",
"[ } | 1 { { { { { 2 3 4 5 6 7 8 ",
"9 0 a b { { { { c d e f g h i   ",
"j k l m { n o p q r s t u v w   ",
"x y z m A B C D E F G H l I J   ",
"  K L M N O P Q R S T U V W     ",
"  X Y Z `  ...+.@.e #.$.%.&.    ",
"  *.=.-.;.>.,.'.).!.~.{.        ",
"    ].^./.(._.:.<.[.            ",
"    }.|.1.2.3.4.                ",
"    5.6.7.8.                    ",
"                                "};
