/* XPM */
static char * TBB_SAVE_LARGE_xpm[] = {
"32 32 301 2",
"  	c None",
". 	c #CAC8BF",
"+ 	c #CDCAC0",
"@ 	c #D4CFB5",
"# 	c #E0D9B6",
"$ 	c #E6DCAC",
"% 	c #E4D89F",
"& 	c #C3C2B9",
"* 	c #C1C1BD",
"= 	c #CDC6A4",
"- 	c #CDC6A6",
"; 	c #D0C8A1",
"> 	c #D9CD94",
", 	c #D9CE98",
"' 	c #DED195",
") 	c #EAD98B",
"! 	c #EBDB91",
"~ 	c #F3E28E",
"{ 	c #F2E294",
"] 	c #F4E396",
"^ 	c #F8E89C",
"/ 	c #F9E898",
"( 	c #FAE998",
"_ 	c #FDEA8B",
": 	c #FFE97F",
"< 	c #FFE97D",
"[ 	c #FFE461",
"} 	c #FFE35D",
"| 	c #FFE14F",
"1 	c #C2C1BB",
"2 	c #D5C786",
"3 	c #E7CC4B",
"4 	c #F0CF31",
"5 	c #F2D12E",
"6 	c #EFD246",
"7 	c #F5D439",
"8 	c #F7D73E",
"9 	c #F0D861",
"0 	c #F4DB62",
"a 	c #F3DC70",
"b 	c #F6E17A",
"c 	c #F7E27C",
"d 	c #FDE881",
"e 	c #FFE879",
"f 	c #FFE775",
"g 	c #FFE66F",
"h 	c #FFE569",
"i 	c #FFE463",
"j 	c #FFE35F",
"k 	c #FFE259",
"l 	c #FFE153",
"m 	c #FFE049",
"n 	c #FFDF43",
"o 	c #FFDE3F",
"p 	c #F7D94A",
"q 	c #E9D36D",
"r 	c #F8E383",
"s 	c #FDF0B3",
"t 	c #FFF2B1",
"u 	c #FFF1AB",
"v 	c #FFF0A7",
"w 	c #FFEFA3",
"x 	c #FFEE9F",
"y 	c #FFED99",
"z 	c #FFED95",
"A 	c #FFEC8F",
"B 	c #FFEB8B",
"C 	c #FFEA85",
"D 	c #FFE87B",
"E 	c #FFE465",
"F 	c #FFE255",
"G 	c #F5DB5F",
"H 	c #FDDD43",
"I 	c #FFDD3B",
"J 	c #EED45B",
"K 	c #D8CC8E",
"L 	c #ADA683",
"M 	c #BAB187",
"N 	c #FFEC91",
"O 	c #FFE981",
"P 	c #FFE671",
"Q 	c #FFE56B",
"R 	c #FFE35B",
"S 	c #FFE04B",
"T 	c #E9D77E",
"U 	c #E7D682",
"V 	c #FADB49",
"W 	c #FFDC35",
"X 	c #E5D06D",
"Y 	c #C7C3AE",
"Z 	c #FEE052",
"` 	c #FFF1AD",
" .	c #BAB28B",
"..	c #AEA680",
"+.	c #FCEB9D",
"@.	c #FFEE9B",
"#.	c #FFEA87",
"$.	c #FFE877",
"%.	c #FFE567",
"&.	c #FFE151",
"*.	c #FFDF45",
"=.	c #F6DB59",
"-.	c #FCDC44",
";.	c #FFDC37",
">.	c #FFDB31",
",.	c #DACB82",
"'.	c #FCDC46",
").	c #A79D6C",
"!.	c #7F7750",
"~.	c #E5D68B",
"{.	c #FFED97",
"].	c #FFEB8D",
"^.	c #FFEA83",
"/.	c #FFE66D",
"(.	c #FFE257",
"_.	c #FFE04D",
":.	c #FFDF47",
"<.	c #FFDE41",
"[.	c #FFDC33",
"}.	c #FFDB2D",
"|.	c #D1C797",
"1.	c #F5D956",
"2.	c #B7AC74",
"3.	c #948A5B",
"4.	c #D5C67E",
"5.	c #FFEC93",
"6.	c #FFEB89",
"7.	c #FFE773",
"8.	c #FFDE3D",
"9.	c #FFDA29",
"0.	c #C8C3AD",
"a.	c #E5D176",
"b.	c #FFEE9D",
"c.	c #FFDD39",
"d.	c #FFDB2F",
"e.	c #FFDA2B",
"f.	c #FDD82A",
"g.	c #D3C893",
"h.	c #FDE46C",
"i.	c #F9E275",
"j.	c #E5D898",
"k.	c #D8D1B3",
"l.	c #D6D0B5",
"m.	c #E2D598",
"n.	c #F5DD67",
"o.	c #FFD925",
"p.	c #F6D538",
"q.	c #C5C2B4",
"r.	c #FBDF58",
"s.	c #E7D995",
"t.	c #CFCDC6",
"u.	c #CCCCCC",
"v.	c #E1D496",
"w.	c #FFDA27",
"x.	c #FFD923",
"y.	c #EBD14F",
"z.	c #FADC50",
"A.	c #D3CFBC",
"B.	c #C6C6C6",
"C.	c #B9B9B9",
"D.	c #CECDC6",
"E.	c #FFD81F",
"F.	c #E2CD66",
"G.	c #EFD763",
"H.	c #D4D0BA",
"I.	c #929292",
"J.	c #CFCDC4",
"K.	c #FFD81B",
"L.	c #D9C97C",
"M.	c #DFCE7C",
"N.	c #FEE776",
"O.	c #E9D989",
"P.	c #D1CEC0",
"Q.	c #CDCCCA",
"R.	c #E2D48F",
"S.	c #FFD717",
"T.	c #CFC597",
"U.	c #D0C79B",
"V.	c #FAE16B",
"W.	c #FCE05A",
"X.	c #F0DA73",
"Y.	c #E3D58F",
"Z.	c #E1D493",
"`.	c #EBD775",
" +	c #F9DB49",
".+	c #FFD921",
"++	c #FFD81D",
"@+	c #FFD719",
"#+	c #FFD613",
"$+	c #C6C2B0",
"%+	c #C3C1B8",
"&+	c #F9DE5D",
"*+	c #FFD715",
"=+	c #FCD51B",
"-+	c #F7DC5A",
";+	c #FFD611",
">+	c #F1D034",
",+	c #EAD56E",
"'+	c #F5D53D",
")+	c #EDCF43",
"!+	c #EED041",
"~+	c #DFC857",
"{+	c #E5CB4D",
"]+	c #FFD60F",
"^+	c #E8CD4D",
"/+	c #DBCD87",
"(+	c #F9E170",
"_+	c #C2B470",
":+	c #ACA581",
"<+	c #ACA586",
"[+	c #ABA68B",
"}+	c #9F9F9F",
"|+	c #A3A3A3",
"1+	c #A6A6A6",
"2+	c #AAA9AA",
"3+	c #ADADAD",
"4+	c #B0B1B0",
"5+	c #BDB9A0",
"6+	c #FFD50B",
"7+	c #DFCA66",
"8+	c #CEC6A2",
"9+	c #F5DD6F",
"0+	c #A8A287",
"a+	c #999999",
"b+	c #9D9C9D",
"c+	c #A0A1A1",
"d+	c #A4A4A4",
"e+	c #A8A7A8",
"f+	c #ABABAB",
"g+	c #D1C171",
"h+	c #F0D03C",
"i+	c #DBC766",
"j+	c #BDBAAC",
"k+	c #FFD509",
"l+	c #D5C784",
"m+	c #F6DD66",
"n+	c #B8AE80",
"o+	c #9E9E9E",
"p+	c #A1A2A2",
"q+	c #A5A5A5",
"r+	c #A9A9A9",
"s+	c #ADACAD",
"t+	c #B0B0B0",
"u+	c #D7C56D",
"v+	c #E5CC52",
"w+	c #BCBCBC",
"x+	c #FFD50D",
"y+	c #FFD407",
"z+	c #CBC49E",
"A+	c #F3DB67",
"B+	c #C4B87A",
"C+	c #A7A7A7",
"D+	c #AAAAAA",
"E+	c #AEADAE",
"F+	c #B1B1B1",
"G+	c #B5B4B4",
"H+	c #D5C576",
"I+	c #EDD043",
"J+	c #BFC0C0",
"K+	c #F9D31D",
"L+	c #FFD403",
"M+	c #C2C1B9",
"N+	c #E7D478",
"O+	c #FBE05F",
"P+	c #D1C070",
"Q+	c #A9A8A9",
"R+	c #ACACAB",
"S+	c #AFAFB0",
"T+	c #B3B3B2",
"U+	c #B6B6B5",
"V+	c #B9B9B8",
"W+	c #D4C680",
"X+	c #C3C3C3",
"Y+	c #EACF4B",
"Z+	c #E4CB58",
"`+	c #D7C77C",
" @	c #CAC3A0",
".@	c #D8CC92",
"+@	c #F4DD6D",
"@@	c #DDC864",
"#@	c #B4B3B4",
"$@	c #B7B7B7",
"%@	c #BAB9BA",
"&@	c #BCBDBC",
"*@	c #C6C2AD",
"=@	c #CBC5A4",
"-@	c #C8C4B1",
";@	c #C2C2C2",
">@	c #CDC6A7",
",@	c #F1DB75",
"'@	c #E6CD58",
")@	c #BAB6A5",
"!@	c #C3BD9D",
"~@	c #C7C09F",
"{@	c #C5C0AD",
"]@	c #BFBFC0",
"^@	c #E3D389",
"/@	c #F4D958",
"(@	c #E7D26E",
"_@	c #DACC87",
":@	c #CDC5A3",
"                                                                ",
"                                                                ",
"                                                                ",
"                                                                ",
"                                                . + @ # $ % &   ",
"                  * = - ; > , ' ) ! ~ { ] ^ / ( _ : < [ } | 1   ",
"    2 3 4 5 6 7 8 9 0 a b c d : < e f g h i j k l | m n o p     ",
"    q r s t u v w x y z A B C : D f g h E j k F | m G H I J     ",
"    K g t L M w x y z N B C O D f P Q E j R F | S T U V W X     ",
"    Y Z `  ...+.@.z N B #.O < $.P Q %.[ R F &.S *.=.-.;.>.,.    ",
"      '.v ).!.~.{.N ].#.^.< $.P /.%.[ R (.&._.:.<.I ;.[.}.|.    ",
"      1.{.2.3.4.5.].6.^.< e 7./.%.i } (.l _.:.n 8.;.[.}.9.0.    ",
"      a.O b.y 5.A 6.C : e 7.g h i } k l _.m n o c.[.d.e.f.      ",
"      g.h.y 5.A B C : e f g i.j.k.l.m.n.m n o c.W d.e.o.p.      ",
"      q.r.z A B C : D f g Q s.t.u.u.u.v.*.o I W d.e.w.x.y.      ",
"        z.A B C O D f P Q E A.u.B.C.u.D.o I W >.e.w.x.E.F.      ",
"        G.^.#.O < $.P Q %.[ H.u.C.I.u.J.I ;.>.}.9.x.E.K.L.      ",
"        M.N.^.< $.7./.%.[ } O.P.u.u.Q.R.;.[.}.9.o.E.K.S.T.      ",
"        U.V.< e 7./.h i } (.W.X.Y.Z.`. +[.d.9.o..+++@+#+$+      ",
"        %+&+e 7.g h i } k l _.m n 8.c.[.d.9.o..+++@+*+=+        ",
"          -+f g h E j k l | m n o c.W d.e.w..+++@+*+;+>+        ",
"          ,+/.Q E j R F | m *.o I W '+)+!+~+{+K.*+;+]+^+        ",
"          /+(+E [ R F | _+:+<+[+}+|+1+2+3+4+5+S.#+]+6+7+        ",
"          8+9+[ R (.&.S 0+a+b+c+d+e+f+g+h+i+j+#+]+6+k+l+        ",
"          1 m+} (.l _.:.n+o+p+q+r+s+t+u+K.v+w+;+x+k+y+z+        ",
"            A+k l _.m n B+d+C+D+E+F+G+H+S.I+J+K+k+y+L+M+        ",
"            N+O+_.m n o P+Q+R+S+T+U+V+W+*+!+X+Y+Z+`+ @          ",
"            .@+@m n o c.@@3+4+#@$@%@&@*@=@-@;@                  ",
"            >@,@*.o I W '@)@!@~@{@]@                            ",
"            * ^@/@(@_@:@                                        ",
"                                                                ",
"                                                                "};
