/* XPM */
static char * TBB_SEARCH_LARGE_xpm[] = {
"32 32 507 2",
"  	c None",
". 	c #B2B1B2",
"+ 	c #ADA7AB",
"@ 	c #B2B0B1",
"# 	c #BFBFBF",
"$ 	c #B8B7B9",
"% 	c #978F95",
"& 	c #90868D",
"* 	c #69646C",
"= 	c #8D8C91",
"- 	c #BEBEBE",
"; 	c #B6B5B6",
"> 	c #B8B8B8",
", 	c #BAB9BA",
"' 	c #B4B3B4",
") 	c #B0AFB0",
"! 	c #767279",
"~ 	c #6B606B",
"{ 	c #6E666E",
"] 	c #56535D",
"^ 	c #504F59",
"/ 	c #B5B4B5",
"( 	c #BEBEBF",
"_ 	c #9B979B",
": 	c #908A90",
"< 	c #78747A",
"[ 	c #939395",
"} 	c #BFBFC0",
"| 	c #B4B1B6",
"1 	c #BDB2BF",
"2 	c #BAAEBB",
"3 	c #847D86",
"4 	c #55515B",
"5 	c #423D4B",
"6 	c #453E4C",
"7 	c #57535E",
"8 	c #605C64",
"9 	c #8D8B8D",
"0 	c #B8B7B8",
"a 	c #AFADB0",
"b 	c #888288",
"c 	c #868187",
"d 	c #68666E",
"e 	c #5B5962",
"f 	c #9C9C9D",
"g 	c #B2AFB6",
"h 	c #B0A5B4",
"i 	c #BBADBE",
"j 	c #A59BAB",
"k 	c #898291",
"l 	c #77717F",
"m 	c #4C4954",
"n 	c #39333F",
"o 	c #494350",
"p 	c #5B545E",
"q 	c #5D5862",
"r 	c #625D66",
"s 	c #9C999C",
"t 	c #79747C",
"u 	c #544F59",
"v 	c #5C575F",
"w 	c #66646D",
"x 	c #605F65",
"y 	c #8A8A8B",
"z 	c #B2B0B4",
"A 	c #B0A6B4",
"B 	c #BBAEBE",
"C 	c #AA9EB1",
"D 	c #8D8596",
"E 	c #8F8897",
"F 	c #7C7685",
"G 	c #605B65",
"H 	c #615D65",
"I 	c #7B747F",
"J 	c #7A747C",
"K 	c #595561",
"L 	c #38343C",
"M 	c #2D2730",
"N 	c #423C47",
"O 	c #7D7A83",
"P 	c #959199",
"Q 	c #A09AA3",
"R 	c #7C787F",
"S 	c #89898B",
"T 	c #BCBABD",
"U 	c #A29AAA",
"V 	c #B9ADBF",
"W 	c #BCAFC1",
"X 	c #9E94A5",
"Y 	c #898392",
"Z 	c #635C6D",
"` 	c #312B39",
" .	c #605B68",
"..	c #9A919B",
"+.	c #847F87",
"@.	c #565460",
"#.	c #4B4751",
"$.	c #54515A",
"%.	c #78747D",
"&.	c #A7A0AE",
"*.	c #B6B0BC",
"=.	c #AFA9B6",
"-.	c #898491",
";.	c #76747D",
">.	c #929294",
",.	c #9995A1",
"'.	c #898492",
").	c #8B8591",
"!.	c #8F8895",
"~.	c #777182",
"{.	c #413A4A",
"].	c #2B2433",
"^.	c #76717D",
"/.	c #8B868D",
"(.	c #6F6B76",
"_.	c #464251",
":.	c #1D1322",
"<.	c #413E4B",
"[.	c #96919F",
"}.	c #A8A1B0",
"|.	c #B2ACB8",
"1.	c #A8A1AD",
"2.	c #898590",
"3.	c #797783",
"4.	c #8C8B92",
"5.	c #AAAAAC",
"6.	c #A7A6AA",
"7.	c #6A6874",
"8.	c #6F6D79",
"9.	c #666571",
"0.	c #5E5D6A",
"a.	c #63616D",
"b.	c #666272",
"c.	c #65606F",
"d.	c #48414D",
"e.	c #4A4453",
"f.	c #585563",
"g.	c #484554",
"h.	c #474554",
"i.	c #302A39",
"j.	c #1D1421",
"k.	c #64616B",
"l.	c #9993A1",
"m.	c #ABA4B3",
"n.	c #B2ABB7",
"o.	c #A49EAB",
"p.	c #84818C",
"q.	c #7B7A83",
"r.	c #959499",
"s.	c #9C9B9F",
"t.	c #837F88",
"u.	c #7A747F",
"v.	c #696572",
"w.	c #565663",
"x.	c #565865",
"y.	c #585966",
"z.	c #575664",
"A.	c #625E6B",
"B.	c #7A7580",
"C.	c #79747F",
"D.	c #6F6A73",
"E.	c #54505B",
"F.	c #454451",
"G.	c #423C48",
"H.	c #4C484F",
"I.	c #817D89",
"J.	c #9993A0",
"K.	c #A69FAE",
"L.	c #A59FAB",
"M.	c #8D8995",
"N.	c #7A7984",
"O.	c #807F86",
"P.	c #9A999D",
"Q.	c #9D9CA1",
"R.	c #9F9DA3",
"S.	c #908791",
"T.	c #968B95",
"U.	c #6E6976",
"V.	c #403D4D",
"W.	c #3F3F4D",
"X.	c #525461",
"Y.	c #555562",
"Z.	c #5A5866",
"`.	c #595765",
" +	c #6D6A76",
".+	c #5E5C68",
"++	c #494754",
"@+	c #6C6A73",
"#+	c #726D75",
"$+	c #7B7883",
"%+	c #797682",
"&+	c #72707B",
"*+	c #6C6C76",
"=+	c #686771",
"-+	c #6B6876",
";+	c #7C7B85",
">+	c #9B9B9F",
",+	c #9B9A9F",
"'+	c #ADACAF",
")+	c #86808C",
"!+	c #938B97",
"~+	c #857E8A",
"{+	c #65616D",
"]+	c #3D3749",
"^+	c #271E30",
"/+	c #43414F",
"(+	c #515461",
"_+	c #515360",
":+	c #52505F",
"<+	c #52505E",
"[+	c #605E6A",
"}+	c #615F6B",
"|+	c #3F3D4A",
"1+	c #5E5C67",
"2+	c #615F6A",
"3+	c #62606B",
"4+	c #61606B",
"5+	c #5D5E69",
"6+	c #5A5D68",
"7+	c #565963",
"8+	c #565761",
"9+	c #686772",
"0+	c #919095",
"a+	c #969599",
"b+	c #B7B6B9",
"c+	c #7F7A85",
"d+	c #8A8591",
"e+	c #746E7A",
"f+	c #545160",
"g+	c #363144",
"h+	c #261C2D",
"i+	c #312C3A",
"j+	c #494957",
"k+	c #4A4C59",
"l+	c #5C5D68",
"m+	c #929097",
"n+	c #74737A",
"o+	c #65636D",
"p+	c #6D6C75",
"q+	c #595762",
"r+	c #5F5D67",
"s+	c #625F6B",
"t+	c #5F5E6B",
"u+	c #555764",
"v+	c #565864",
"w+	c #4E505B",
"x+	c #585960",
"y+	c #757478",
"z+	c #8A8B8F",
"A+	c #BBBBBC",
"B+	c #7F7C86",
"C+	c #88818E",
"D+	c #8A8490",
"E+	c #7E7884",
"F+	c #645F6E",
"G+	c #464354",
"H+	c #312C3D",
"I+	c #342E3C",
"J+	c #656268",
"K+	c #828186",
"L+	c #929195",
"M+	c #B5B5B6",
"N+	c #B7B7B7",
"O+	c #BFBEBF",
"P+	c #96959A",
"Q+	c #5A5863",
"R+	c #5D5D67",
"S+	c #575864",
"T+	c #535462",
"U+	c #666470",
"V+	c #6A6870",
"W+	c #555460",
"X+	c #4D4E58",
"Y+	c #636366",
"Z+	c #76767A",
"`+	c #88868E",
" @	c #7F7985",
".@	c #87818D",
"+@	c #6D6875",
"@@	c #545261",
"#@	c #3E3C4F",
"$@	c #322D3E",
"%@	c #6A6770",
"&@	c #61636C",
"*@	c #585864",
"=@	c #72707C",
"-@	c #87828C",
";@	c #7F7983",
">@	c #676570",
",@	c #63616A",
"'@	c #5D5D61",
")@	c #646569",
"!@	c #918F98",
"~@	c #73707D",
"{@	c #7B7683",
"]@	c #726C7A",
"^@	c #615D6B",
"/@	c #4A485A",
"(@	c #3C394B",
"_@	c #373543",
":@	c #909094",
"<@	c #B0B0B2",
"[@	c #6C6A75",
"}@	c #847F89",
"|@	c #878189",
"1@	c #75717D",
"2@	c #6E6C72",
"3@	c #6C6C6E",
"4@	c #7A7C7D",
"5@	c #ADACB0",
"6@	c #777583",
"7@	c #84828F",
"8@	c #7C7985",
"9@	c #6F6D7A",
"0@	c #63616F",
"a@	c #555262",
"b@	c #464356",
"c@	c #3B3949",
"d@	c #42404E",
"e@	c #A7A6A9",
"f@	c #76737F",
"g@	c #807B86",
"h@	c #6E6C77",
"i@	c #626069",
"j@	c #6E6E71",
"k@	c #6B6E6E",
"l@	c #969698",
"m@	c #BEBDBF",
"n@	c #9E9AA6",
"o@	c #76727E",
"p@	c #6C6775",
"q@	c #8D879A",
"r@	c #827E8D",
"s@	c #5F5E6C",
"t@	c #4B495B",
"u@	c #434052",
"v@	c #3B3847",
"w@	c #605E69",
"x@	c #BDBDBE",
"y@	c #7B7983",
"z@	c #7B7581",
"A@	c #817A87",
"B@	c #797581",
"C@	c #6A6873",
"D@	c #63626B",
"E@	c #6D6F73",
"F@	c #666C6E",
"G@	c #A5A5A7",
"H@	c #BBB8BD",
"I@	c #635B6A",
"J@	c #2C2831",
"K@	c #16151A",
"L@	c #4D435A",
"M@	c #827492",
"N@	c #878193",
"O@	c #5B5867",
"P@	c #3C3A49",
"Q@	c #8C8B91",
"R@	c #A2A1A6",
"S@	c #7A7682",
"T@	c #7A7681",
"U@	c #716F7A",
"V@	c #64626D",
"W@	c #62626A",
"X@	c #6B6C70",
"Y@	c #62676B",
"Z@	c #ABACAD",
"`@	c #BEBBC0",
" #	c #3A3440",
".#	c #231C29",
"+#	c #302C34",
"@#	c #131213",
"##	c #382F40",
"$#	c #645872",
"%#	c #807B8B",
"&#	c #4B4958",
"*#	c #434350",
"=#	c #AFAFB2",
"-#	c #BEBDBE",
";#	c #767481",
">#	c #706E7B",
",#	c #74727D",
"'#	c #706E78",
")#	c #686671",
"!#	c #5F5F69",
"~#	c #606269",
"{#	c #68696D",
"]#	c #606366",
"^#	c #AFB0B1",
"/#	c #C1C0C2",
"(#	c #6F6977",
"_#	c #110A17",
":#	c #27202C",
"<#	c #322E36",
"[#	c #322D37",
"}#	c #48444B",
"|#	c #7A7784",
"1#	c #676973",
"2#	c #A3A2A7",
"3#	c #676573",
"4#	c #706E79",
"5#	c #6A6772",
"6#	c #5E5D69",
"7#	c #575A66",
"8#	c #5D6168",
"9#	c #63676A",
"0#	c #5F6268",
"a#	c #B3B4B4",
"b#	c #BEBCBF",
"c#	c #443D4D",
"d#	c #0D0713",
"e#	c #211A27",
"f#	c #3C3545",
"g#	c #3E3845",
"h#	c #3F3944",
"i#	c #86808F",
"j#	c #A3A4A7",
"k#	c #7B7A85",
"l#	c #787684",
"m#	c #777580",
"n#	c #727079",
"o#	c #676670",
"p#	c #535662",
"q#	c #595D65",
"r#	c #5E6167",
"s#	c #5F636A",
"t#	c #B9B9B9",
"u#	c #BCBABE",
"v#	c #5E5B67",
"w#	c #322B3A",
"x#	c #2A2432",
"y#	c #1A1521",
"z#	c #4C4755",
"A#	c #A19CAA",
"B#	c #B2B1B5",
"C#	c #83818D",
"D#	c #56555D",
"E#	c #5C5566",
"F#	c #7A6F86",
"G#	c #777183",
"H#	c #6A6976",
"I#	c #595B64",
"J#	c #575A63",
"K#	c #565B64",
"L#	c #63676D",
"M#	c #BCBCBC",
"N#	c #C0BFC1",
"O#	c #AFACB2",
"P#	c #8A858F",
"Q#	c #75717E",
"R#	c #9B98A4",
"S#	c #BDBCBF",
"T#	c #AAA9B0",
"U#	c #575360",
"V#	c #1A171A",
"W#	c #0F0C11",
"X#	c #4B3F58",
"Y#	c #675879",
"Z#	c #70627F",
"`#	c #726D7D",
" $	c #63656F",
".$	c #4E545D",
"+$	c #666B70",
"@$	c #37323F",
"#$	c #28222D",
"$$	c #1C1B1D",
"%$	c #0B0A0C",
"&$	c #292430",
"*$	c #443B4E",
"=$	c #433C4F",
"-$	c #54535E",
";$	c #5B5F68",
">$	c #6E7176",
",$	c #4A4651",
"'$	c #140D19",
")$	c #2A242F",
"!$	c #2B272E",
"~$	c #171617",
"{$	c #232125",
"]$	c #242228",
"^$	c #1F1D21",
"/$	c #676872",
"($	c #878A8D",
"_$	c #A9A7AE",
":$	c #26212B",
"<$	c #0B060F",
"[$	c #1D1621",
"}$	c #2C2531",
"|$	c #37323D",
"1$	c #2E2A35",
"2$	c #302A35",
"3$	c #666570",
"4$	c #A2A4A7",
"5$	c #A5A5A9",
"6$	c #44404A",
"7$	c #17121B",
"8$	c #231C28",
"9$	c #1C1620",
"0$	c #44434D",
"a$	c #7F7F89",
"b$	c #B3B3B5",
"c$	c #BABABC",
"d$	c #97969C",
"e$	c #686670",
"f$	c #565561",
"g$	c #7B7D87",
"h$	c #AEAEB1",
"                                                                ",
"                                . + @ #                         ",
"                              $ % & * =         - ; >           ",
"                        , ' ) ! ~ { ] ^ /     ( _ : < [ }       ",
"                      | 1 2 3 4 5 6 7 8 9 0   a b c d e f       ",
"                    g h i j k l m n o p q r s t u v w x y       ",
"                  z A B C D E F G H I J K L M N O P Q R S -     ",
"                T U V W X Y E Z `  ...+.@.#.$.%.&.*.=.-.;.>.#   ",
"              # ,.'.).!.k k ~.{.].^./.(._.:.<.[.}.|.1.2.3.4.5.  ",
"              6.7.8.9.0.a.b.c.d.e.f.g.h.i.j.k.l.m.n.o.p.q.r.s.  ",
"            ( t.u.v.w.x.y.z.A.B.C.D.E.F.G.H.I.J.K.L.M.N.O.P.Q.  ",
"            R.S.T.U.V.W.X.x.Y.Z.`. +.+++@+#+$+%+&+*+=+-+;+>+,+  ",
"          '+)+!+~+{+]+^+/+(+_+:+<+[+}+|+1+2+3+4+5+6+7+8+9+0+a+  ",
"        b+c+!.d+e+f+g+h+i+j+k+l+m+n+o+p+q+r+s+t+y.u+v+w+x+y+z+  ",
"      A+B+C+D+E+F+G+H+I+J+K+L+M+  - N+O+P+Q+R+S+T+U+V+W+X+Y+Z+  ",
"    } `+ @.@E++@@@#@$@%@#                 s.&@*@=@-@;@>@,@'@)@  ",
"  } !@~@c+{@]@^@/@(@_@:@                    <@[@}@|@1@3+2@3@4@  ",
"  5@6@7@8@9@0@a@b@c@d@<@                    e@f@)+g@h@i@j@k@l@  ",
"m@n@o@p@q@r@s@t@u@v@w@-                   x@y@z@A@B@C@D@E@F@G@  ",
"H@I@J@K@L@M@N@O@(@P@Q@                    R@8.S@T@U@V@W@X@Y@Z@  ",
"`@ #.#+#@###$#%#&#*#=#                  -#;#>#,#'#)#!#~#{#]#^#  ",
"/#(#_#:#+#<#[#}#|#1#}                   2#3#9@4#5#6#7#8#9#0#a#  ",
"  b#c#d#e#f#g#h#i#j#                  x@k#l#m#n#o#y.p#q#r#s#t#  ",
"    u#v#w#x#y#z#A#(                   B#C#D#E#F#G#H#I#J#K#L#M#  ",
"      N#O#P#Q#R#S#                    T#U#V#W#X#Y#Z#`# $.$+$-   ",
"            }                         T#@$#$$$%$&$*$=$-$;$>$#   ",
"                                      S#,$'$)$!$~${$]$^$/$($    ",
"                                        _$:$<$[$}$|$1$2$3$4$    ",
"                                          5$6$7$7$8$9$0$a$b$    ",
"                                            c$d$e$@.f$g$h$      ",
"                                                                ",
"                                                                "};
