/* XPM */
static char * search_large_xpm[] = {
"32 32 453 2",
"  	c #C0C0C0",
". 	c #BFBFC0",
"+ 	c #BEBEBE",
"@ 	c #BABABC",
"# 	c #B8B8BB",
"$ 	c #B8B8BA",
"% 	c #B9B9BB",
"& 	c #BCBCBD",
"* 	c #BFBFBF",
"= 	c #BDBDBE",
"- 	c #B6B6B9",
"; 	c #BEBEBF",
"> 	c #B2B6BE",
", 	c #A8B9CA",
"' 	c #A1B2C5",
") 	c #A7B7CB",
"! 	c #A6BED1",
"~ 	c #A6B3C1",
"{ 	c #AFB4BC",
"] 	c #A2BCD2",
"^ 	c #A4BDD4",
"/ 	c #A4BBD0",
"( 	c #ACC2D7",
"_ 	c #A1BDD5",
": 	c #A5B2BE",
"< 	c #A7B3C0",
"[ 	c #A9D3EF",
"} 	c #BFDFF5",
"| 	c #D1E8F8",
"1 	c #B2DBF7",
"2 	c #97B3CA",
"3 	c #A4AEBC",
"4 	c #A4D3F3",
"5 	c #BCE3FA",
"6 	c #D9EFFC",
"7 	c #D2ECFC",
"8 	c #A8D7F5",
"9 	c #95ADC3",
"0 	c #BBBBBD",
"a 	c #A1B3C4",
"b 	c #B7E3FF",
"c 	c #B8E3FF",
"d 	c #CAEAFF",
"e 	c #CFECFF",
"f 	c #9AB6CD",
"g 	c #9EAABB",
"h 	c #A9DDFF",
"i 	c #C6E9FF",
"j 	c #EAF7FF",
"k 	c #DAF1FF",
"l 	c #BDE3FC",
"m 	c #92ABC3",
"n 	c #9CB1C7",
"o 	c #92D3FD",
"p 	c #CCEBFF",
"q 	c #D9F1FF",
"r 	c #BDE5FF",
"s 	c #98B4CD",
"t 	c #98A8BA",
"u 	c #7BCCFF",
"v 	c #D6EFFF",
"w 	c #E2F4FF",
"x 	c #A6D8F9",
"y 	c #94AAC0",
"z 	c #8FADC8",
"A 	c #82CCFE",
"B 	c #CDE9FF",
"C 	c #DAF0FF",
"D 	c #95B1CB",
"E 	c #B1B1B6",
"F 	c #B4B4B8",
"G 	c #93A5B9",
"H 	c #6BC5FF",
"I 	c #D2ECFF",
"J 	c #D3ECFF",
"K 	c #D8EFFE",
"L 	c #9AD2F6",
"M 	c #99ABC0",
"N 	c #AFB1B6",
"O 	c #7EB5DE",
"P 	c #9DD8FF",
"Q 	c #C3E6FF",
"R 	c #CCEAFF",
"S 	c #ABDFFF",
"T 	c #AACBE5",
"U 	c #9FADC0",
"V 	c #A4B5C9",
"W 	c #9AC3E2",
"X 	c #9CD8FF",
"Y 	c #C7E8FF",
"Z 	c #C9E9FF",
"` 	c #CEEBFF",
" .	c #95D1F9",
"..	c #9BADC0",
"+.	c #9AB1C7",
"@.	c #97D5FE",
"#.	c #C0E6FF",
"$.	c #B9E2FF",
"%.	c #B8E1FF",
"&.	c #B8E4FF",
"*.	c #B2E1FE",
"=.	c #BFE5FE",
"-.	c #BAE4FF",
";.	c #ACDEFF",
">.	c #C1E7FF",
",.	c #C1E6FF",
"'.	c #C2E6FF",
").	c #AADDFE",
"!.	c #93B0CB",
"~.	c #8FBEE0",
"{.	c #A7DDFF",
"].	c #B5E1FF",
"^.	c #ACDCFF",
"/.	c #AEDFFF",
"(.	c #BCE5FF",
"_.	c #D0EDFF",
":.	c #B6E2FF",
"<.	c #B8E2FF",
"[.	c #B9E3FF",
"}.	c #C6E8FF",
"|.	c #C2E7FF",
"1.	c #94C2E3",
"2.	c #B3B3B8",
"3.	c #AEB1B8",
"4.	c #82BFE7",
"5.	c #9CD7FF",
"6.	c #A5DAFF",
"7.	c #9FD6FF",
"8.	c #9FD7FF",
"9.	c #DCF1FF",
"0.	c #BDE4FF",
"a.	c #A3DAFF",
"b.	c #AFDFFF",
"c.	c #BDE6FF",
"d.	c #C8EAFF",
"e.	c #9CCCEE",
"f.	c #ABB1BA",
"g.	c #AAB1BC",
"h.	c #73BAED",
"i.	c #8FD2FF",
"j.	c #97D4FF",
"k.	c #92D2FF",
"l.	c #95D4FF",
"m.	c #B1E0FF",
"n.	c #ACDDFF",
"o.	c #D7F0FF",
"p.	c #B7E2FF",
"q.	c #A4DBFF",
"r.	c #A5DBFF",
"s.	c #A1D0F2",
"t.	c #A6AFBB",
"u.	c #A4B0BE",
"v.	c #6BBDF2",
"w.	c #83CDFF",
"x.	c #87CEFF",
"y.	c #84CDFF",
"z.	c #8AD0FF",
"A.	c #B6E3FF",
"B.	c #9BD7FF",
"C.	c #CEECFF",
"D.	c #ABDEFF",
"E.	c #87CFFF",
"F.	c #99D7FF",
"G.	c #9BD8FF",
"H.	c #AADEFF",
"I.	c #A4D6F7",
"J.	c #A0AEBF",
"K.	c #9EB1C4",
"L.	c #6AC2FB",
"M.	c #77C9FF",
"N.	c #78C9FF",
"O.	c #76C9FF",
"P.	c #7FCCFF",
"Q.	c #91D4FF",
"R.	c #79CAFF",
"S.	c #A4DCFF",
"T.	c #8BD1FF",
"U.	c #93D4FF",
"V.	c #9FD9FF",
"W.	c #AFDFFD",
"X.	c #9BAFC4",
"Y.	c #98B6D1",
"Z.	c #5EC0FF",
"`.	c #45B5FF",
" +	c #6BC4FF",
".+	c #6CC5FF",
"++	c #71C7FF",
"@+	c #8AD1FF",
"#+	c #75CAFF",
"$+	c #6EC6FF",
"%+	c #7ACAFF",
"&+	c #7FCDFF",
"*+	c #8CD1FF",
"=+	c #98D6FF",
"-+	c #B5E2FF",
";+	c #95B4CD",
">+	c #96BDD9",
",+	c #4AB9FF",
"'+	c #31AEFF",
")+	c #32AEFF",
"!+	c #2BABFF",
"~+	c #2CADFF",
"{+	c #36B1FF",
"]+	c #37B1FF",
"^+	c #46B8FF",
"/+	c #53BCFF",
"(+	c #5DBFFF",
"_+	c #67C2FF",
":+	c #78CAFF",
"<+	c #BAE3FF",
"[+	c #B3E1FF",
"}+	c #93B6D5",
"|+	c #B6B6BA",
"1+	c #B5B5B8",
"2+	c #99C2E0",
"3+	c #48B8FD",
"4+	c #20A8FF",
"5+	c #27AAFF",
"6+	c #29ACFF",
"7+	c #2DADFF",
"8+	c #34B0FF",
"9+	c #41B6FF",
"0+	c #41B4FF",
"a+	c #4FB9FF",
"b+	c #54BAFF",
"c+	c #58BDFF",
"d+	c #65C2FF",
"e+	c #B9E2FE",
"f+	c #8FB8D8",
"g+	c #9CC5E5",
"h+	c #4AB6FA",
"i+	c #23A8FD",
"j+	c #2AADFF",
"k+	c #2FAEFF",
"l+	c #2FADFD",
"m+	c #36AEFA",
"n+	c #48B1F5",
"o+	c #64BBF4",
"p+	c #5AB5F3",
"q+	c #4CB3F7",
"r+	c #4CB5FA",
"s+	c #55BBFE",
"t+	c #66C2FF",
"u+	c #A2DAFE",
"v+	c #B7E2FD",
"w+	c #92BCDB",
"x+	c #B2B2B7",
"y+	c #96C4E5",
"z+	c #4AB4F9",
"A+	c #27ABFD",
"B+	c #30AFFF",
"C+	c #31ADFD",
"D+	c #31A9F6",
"E+	c #33A1E7",
"F+	c #52A1D4",
"G+	c #71A5C9",
"H+	c #66A2C9",
"I+	c #57A6DC",
"J+	c #5AB2EC",
"K+	c #5FBCF9",
"L+	c #60BEFE",
"M+	c #68C3FF",
"N+	c #9ED9FE",
"O+	c #BBE4FD",
"P+	c #93BEDF",
"Q+	c #92C3E6",
"R+	c #4BB5F9",
"S+	c #2DADFD",
"T+	c #36B0FF",
"U+	c #35ACFB",
"V+	c #2AA2ED",
"W+	c #278ECD",
"X+	c #3779A6",
"Y+	c #48718D",
"Z+	c #477593",
"`+	c #4186B3",
" @	c #5CA8DA",
".@	c #68BBF2",
"+@	c #65BFFC",
"@@	c #6EC5FF",
"#@	c #9BD7FE",
"$@	c #BDE4FD",
"%@	c #95C0E2",
"&@	c #94C6E9",
"*@	c #49B4F8",
"=@	c #35AEFD",
"-@	c #3FB3FF",
";@	c #51B9FC",
">@	c #5AB3EC",
",@	c #388FC6",
"'@	c #5A7E9B",
")@	c #6C7B8E",
"!@	c #687A8D",
"~@	c #557E9F",
"{@	c #3289C2",
"]@	c #4CA9E8",
"^@	c #5AB9FA",
"/@	c #69C3FF",
"(@	c #97D4FE",
"_@	c #B5E1FC",
":@	c #96C3E5",
"<@	c #9CCAEC",
"[@	c #4DB3F7",
"}@	c #39AFFD",
"|@	c #49B6FF",
"1@	c #74C7FE",
"2@	c #A0D5F7",
"3@	c #6EB0DD",
"4@	c #899AAD",
"5@	c #B0B0B5",
"6@	c #879AAF",
"7@	c #2687C5",
"8@	c #3FA6E9",
"9@	c #52B8FC",
"0@	c #9BD5FE",
"a@	c #BDE2FC",
"b@	c #9AC6E8",
"c@	c #98CBED",
"d@	c #52B4F7",
"e@	c #3FB1FD",
"f@	c #4EB9FF",
"g@	c #76C8FF",
"h@	c #A4D8FB",
"i@	c #82C2EF",
"j@	c #87A2BC",
"k@	c #869FB6",
"l@	c #3B9CDB",
"m@	c #4EAFF1",
"n@	c #5ABDFD",
"o@	c #6CC3FF",
"p@	c #9DD7FE",
"q@	c #BFE3FB",
"r@	c #99C7EA",
"s@	c #91C7ED",
"t@	c #53B4F6",
"u@	c #45B5FD",
"v@	c #53BBFF",
"w@	c #79C9FF",
"x@	c #A7DBFE",
"y@	c #89CBF9",
"z@	c #88B1D0",
"A@	c #B3B4BA",
"B@	c #B7B7BA",
"C@	c #809FBD",
"D@	c #4DAFEF",
"E@	c #5ABBF8",
"F@	c #62C1FF",
"G@	c #70C5FF",
"H@	c #9DD5FD",
"I@	c #BCE1FB",
"J@	c #9AC8EA",
"K@	c #AFAFB5",
"L@	c #89C5EF",
"M@	c #57B4F5",
"N@	c #4EB7FD",
"O@	c #5BBDFF",
"P@	c #7CCAFF",
"Q@	c #89CCFB",
"R@	c #8BB8DA",
"S@	c #B0B3BA",
"T@	c #7B9FC0",
"U@	c #59B8F6",
"V@	c #63BEFC",
"W@	c #74C7FF",
"X@	c #9ED5FD",
"Y@	c #9AC9EB",
"Z@	c #AEAEB4",
"`@	c #8FC7ED",
" #	c #63B7F1",
".#	c #5CBBFA",
"+#	c #68C2FD",
"@#	c #85CDFE",
"##	c #AEDCFB",
"$#	c #9AD0F7",
"%#	c #91B7D6",
"&#	c #B0B2B9",
"*#	c #B5B5B9",
"=#	c #7FA3C2",
"-#	c #6CBFF6",
";#	c #72C2FA",
">#	c #7ECCFF",
",#	c #A4D8FD",
"'#	c #C1E4FB",
")#	c #A4CDED",
"!#	c #9BC2DD",
"~#	c #7AB0D5",
"{#	c #77B3D9",
"]#	c #81BADD",
"^#	c #97C5E2",
"/#	c #B9D6EA",
"(#	c #A8CAE3",
"_#	c #91B0C9",
":#	c #B0B2B8",
"<#	c #86A3BB",
"[#	c #87BCE0",
"}#	c #8DC1E5",
"|#	c #8FC3E8",
"1#	c #95C6EB",
"2#	c #B1D5EF",
"3#	c #C9E1F1",
"4#	c #AECEE6",
"5#	c #7FA0B5",
"6#	c #577C94",
"7#	c #4D758E",
"8#	c #537891",
"9#	c #7390A5",
"0#	c #A3B5C5",
"a#	c #8CA5BA",
"b#	c #809AB3",
"c#	c #B0B1B7",
"d#	c #B2B3B8",
"e#	c #7691A8",
"f#	c #6C92A9",
"g#	c #7695AB",
"h#	c #7896AD",
"i#	c #7A98AF",
"j#	c #9CB2C4",
"k#	c #BACAD7",
"l#	c #A1BCD0",
"m#	c #627B8D",
"n#	c #264054",
"o#	c #153143",
"p#	c #1C3242",
"q#	c #3E5160",
"r#	c #707F8D",
"s#	c #697B8E",
"t#	c #8093A6",
"u#	c #B4B5B9",
"v#	c #B5B6B9",
"w#	c #768699",
"x#	c #415D6F",
"y#	c #425A69",
"z#	c #3F5565",
"A#	c #395063",
"B#	c #657888",
"C#	c #92A0AD",
"D#	c #8BA0B3",
"E#	c #9DA2A9",
"F#	c #79808C",
"G#	c #727B86",
"H#	c #747A87",
"I#	c #7D828D",
"J#	c #858A96",
"K#	c #9196A1",
"L#	c #ADB0B7",
"M#	c #ADAEB4",
"N#	c #828A96",
"O#	c #707985",
"P#	c #6B7480",
"Q#	c #676E7C",
"R#	c #737A88",
"S#	c #808795",
"T#	c #99A1AC",
"                                                                ",
"                . + @ # $ % & * . = # - - - $ & .               ",
"                ; > , ' ) ! ~ & ; { ] ^ / ( _ : =               ",
"                & < [ } | 1 2 % = 3 4 5 6 7 8 9 0               ",
"                0 a b c d e f $ & g h i j k l m 0               ",
"                @ n o p q r s $ 0 t u v v w x y 0               ",
"                $ z A B C b D E F G H I J K L M 0               ",
"              + N O P Q R S T U V W X Y Z `  ...0               ",
"              % +.@.#.$.%.&.*.=.-.;.>.,.'.p ).!.$               ",
"              F ~.{.].^.^./.(._.e r :.<.[.}.|.1.2..             ",
"            * 3.4.5.6.7.8.(.c -.9.0.a.b.b.c.d.e.f.;             ",
"            + g.h.i.j.k.l.(.m.n.o.p.l.q.r.].d s.t.=             ",
"            = u.v.w.x.y.z.A.q.B.C.D.E.F.G.H.R I.J.&             ",
"            @ K.L.M.N.O.P.b Q.R.S.T.P.Q.U.V.e W.X.@             ",
"            # Y.Z.`. +.+++@+#+$+P.%+&+z.*+=+#.-+;+#             ",
"            - >+,+'+)+)+'+!+~+{+]+^+/+(+_+:+<+[+}+|+            ",
"            1+2+3+4+5+6+7+'+8+9+0+^+a+b+c+d+D.e+f+1+            ",
"            F g+h+i+j+k+l+m+n+o+p+q+r+s+(+t+u+v+w+F             ",
"            x+y+z+A+B+C+D+E+F+G+H+I+J+K+L+M+N+O+P+F             ",
"            x+Q+R+S+T+U+V+W+X+Y+Z+`+ @.@+@@@#@$@%@x+            ",
"            E &@*@=@-@;@>@,@'@)@!@~@{@]@^@/@(@_@:@x+            ",
"            E <@[@}@|@1@2@3@4@5@5@6@7@8@9@_+0@a@b@E             ",
"            5@c@d@e@f@g@h@i@j@|+# k@l@m@n@o@p@q@r@E             ",
"            5@s@t@u@v@w@x@y@z@A@B@C@D@E@F@G@H@I@J@5@            ",
"            K@L@M@N@O@P@x@Q@R@S@|+T@U@V@/@W@X@I@Y@5@            ",
"            Z@`@ #.#+#@###$#%#&#*#=#-#;#O.>#,#'#)#5@            ",
"            Z@!#~#{#]#^#/#(#_#:#F <#[#}#|#1#2#3#4#K@            ",
"            Z@5#6#7#8#9#0#a#b#c#d#e#f#g#h#i#j#k#l#K@            ",
"            x+m#n#o#p#q#r#s#t#u#v#w#x#y#z#A#B#C#D#x+            ",
"            @ E#F#G#H#I#J#K#L#& = M#N#O#P#Q#R#S#T#%             ",
"            * = @ @ @ @ @ 0 + . . + @ $ $ $ # % 0 ;             ",
"                                                                "};
