/* XPM */
static char * TBB_SEARCH_xpm[] = {
"16 15 165 2",
"  	c #C0C0C0",
". 	c #C0BFBF",
"+ 	c #BAB9BC",
"@ 	c #B9B9BB",
"# 	c #BFBFBF",
"$ 	c #C0BFC0",
"% 	c #B9B9BC",
"& 	c #B7B8BB",
"* 	c #BCBCBD",
"= 	c #C1C0BF",
"- 	c #B5BAC0",
"; 	c #AFC7DB",
"> 	c #B2CCE1",
", 	c #B0BAC2",
"' 	c #B4B8BE",
") 	c #ACCAE0",
"! 	c #BED7E9",
"~ 	c #A6BFD2",
"{ 	c #BBBBBD",
"] 	c #C1C0C0",
"^ 	c #C2C0BE",
"/ 	c #AAB7C3",
"( 	c #B3E0FD",
"_ 	c #CAEBFE",
": 	c #ACB8C4",
"< 	c #A6B0BB",
"[ 	c #AEDEFA",
"} 	c #E3FAFF",
"| 	c #A6C6DF",
"1 	c #B8B8BB",
"2 	c #C1C1C0",
"3 	c #C2BEBC",
"4 	c #9AB4C9",
"5 	c #ADDDFF",
"6 	c #C5E8FF",
"7 	c #A5BACD",
"8 	c #9BB4CA",
"9 	c #AADCFD",
"0 	c #D1EFFF",
"a 	c #9EC1DC",
"b 	c #BBB9BA",
"c 	c #9DC8E6",
"d 	c #B4E2FF",
"e 	c #B2E0FF",
"f 	c #BEE5FD",
"g 	c #BDE4FE",
"h 	c #BBE4FF",
"i 	c #C3E9FF",
"j 	c #A7CDE8",
"k 	c #B6B8BC",
"l 	c #C2C1BF",
"m 	c #B0B7BE",
"n 	c #8CC8F2",
"o 	c #9BD7FF",
"p 	c #AADDFF",
"q 	c #BFE6FF",
"r 	c #C9EAFF",
"s 	c #A2DAFF",
"t 	c #B6E4FF",
"u 	c #B3DAF4",
"v 	c #B0B7BF",
"w 	c #C2C0BF",
"x 	c #C3C0BF",
"y 	c #A9B6C2",
"z 	c #74C3F8",
"A 	c #7CCBFF",
"B 	c #9AD7FF",
"C 	c #9BD8FF",
"D 	c #A1DAFF",
"E 	c #8BD1FF",
"F 	c #A4DCFF",
"G 	c #B8DFF9",
"H 	c #ABB7C3",
"I 	c #C3BFBD",
"J 	c #A6BBCC",
"K 	c #42B5FF",
"L 	c #38B2FF",
"M 	c #46B7FF",
"N 	c #4ABBFF",
"O 	c #52BDFF",
"P 	c #5EBFFF",
"Q 	c #75C9FF",
"R 	c #AEDEFE",
"S 	c #A8BACA",
"T 	c #C1BFBD",
"U 	c #C3BEBC",
"V 	c #A4BDD0",
"W 	c #39B1FE",
"X 	c #24AAFF",
"Y 	c #2AA6F4",
"Z 	c #51A6DE",
"` 	c #54A9E1",
" .	c #54B7F8",
"..	c #64C2FF",
"+.	c #A5DBFE",
"@.	c #A9BDCD",
"#.	c #C1BEBC",
"$.	c #A1BBD1",
"%.	c #40B3FD",
"&.	c #3DB3FF",
"*.	c #3E9DDB",
"=.	c #567B96",
"-.	c #577F9C",
";.	c #4DA3DC",
">.	c #66C2FF",
",.	c #A3DBFF",
"'.	c #AABECF",
").	c #C0BDBC",
"!.	c #C2BEBB",
"~.	c #A3BDD1",
"{.	c #45B3FD",
"].	c #62C2FF",
"^.	c #8AC4EB",
"/.	c #9DA7B4",
"(.	c #97A3B1",
"_.	c #3A9CDC",
":.	c #60C0FF",
"<.	c #A6DBFF",
"[.	c #ABBFD1",
"}.	c #C0BDBB",
"|.	c #9CBBD3",
"1.	c #4DB9FF",
"2.	c #6BC7FF",
"3.	c #97D4FE",
"4.	c #A3B7C9",
"5.	c #9AACBE",
"6.	c #56B6F6",
"7.	c #6CC7FF",
"8.	c #A7DBFF",
"9.	c #ABC0D2",
"0.	c #A0B9CD",
"a.	c #6AB7E9",
"b.	c #83C6F0",
"c.	c #A7D2F1",
"d.	c #A3B4C4",
"e.	c #9BABBB",
"f.	c #79BDEC",
"g.	c #88CAF7",
"h.	c #B6DEFB",
"i.	c #B1C2D1",
"j.	c #BFBCBB",
"k.	c #C4C2C2",
"l.	c #919FAB",
"m.	c #38596F",
"n.	c #4D6678",
"o.	c #8093A5",
"p.	c #9FA8B4",
"q.	c #98A2AD",
"r.	c #59768B",
"s.	c #5B7387",
"t.	c #8B9FB0",
"u.	c #A8B2BE",
"v.	c #C1BFBF",
"w.	c #C2C1C1",
"x.	c #B2B3B6",
"y.	c #8F9399",
"z.	c #909399",
"A.	c #9FA2A8",
"B.	c #B9BABC",
"C.	c #B8B9BB",
"D.	c #94999F",
"E.	c #8A8E95",
"F.	c #969AA2",
"G.	c #B3B5B8",
"H.	c #C1C1C1",
"        . + @ # $ % & *         ",
"      = - ; > , ' ) ! ~ { ]     ",
"      ^ / ( _ : < [ } | 1 2     ",
"      3 4 5 6 7 8 9 0 a b 2     ",
"    2 @ c d e f g h i j k 2     ",
"    l m n o p q r s t u v w     ",
"    x y z A B C D E F G H ^     ",
"    I J K L M N O P Q R S T     ",
"    U V W X Y Z `  ...+.@.#.    ",
"    3 $.%.&.*.=.-.;.>.,.'.).    ",
"    !.~.{.].^./.(._.:.<.[.}.    ",
"    !.|.1.2.3.4.5.6.7.8.9.}.    ",
"    #.0.a.b.c.d.e.f.g.h.i.j.    ",
"    k.l.m.n.o.p.q.r.s.t.u.v.    ",
"    w.x.y.z.A.B.C.D.E.F.G.H.    "};
