/* XPM */
static char * TBB_SEARCH_xpm[] = {
"16 15 161 2",
"  	c None",
". 	c #C1C1C1",
"+ 	c #C3C3C3",
"@ 	c #B9B8B8",
"# 	c #BBBABA",
"$ 	c #C1C2C1",
"% 	c #C2C3C2",
"& 	c #C4C4C4",
"* 	c #C0C1C0",
"= 	c #BFBFBF",
"- 	c #A4A1A4",
"; 	c #787079",
"> 	c #6F6C74",
", 	c #BDBEBE",
"' 	c #C5C6C5",
") 	c #A8A6A8",
"! 	c #9F9EA1",
"~ 	c #C1C1C0",
"{ 	c #B9B4BB",
"] 	c #B4A9B7",
"^ 	c #78727E",
"/ 	c #443E4B",
"( 	c #524D57",
"_ 	c #848185",
": 	c #979598",
"< 	c #6E6971",
"[ 	c #636068",
"} 	c #A8A8A9",
"| 	c #C2C2C2",
"1 	c #B6B3B9",
"2 	c #B6AABB",
"3 	c #9F95A7",
"4 	c #777080",
"5 	c #56515D",
"6 	c #827C85",
"7 	c #47434E",
"8 	c #4E4953",
"9 	c #97929D",
"0 	c #918C96",
"a 	c #929194",
"b 	c #B7B7B8",
"c 	c #817D89",
"d 	c #7A7683",
"e 	c #797482",
"f 	c #595362",
"g 	c #534D5A",
"h 	c #66636F",
"i 	c #2D2634",
"j 	c #746F7C",
"k 	c #BBB3C2",
"l 	c #9993A0",
"m 	c #818088",
"n 	c #B3B3B4",
"o 	c #9F9BA1",
"p 	c #736D79",
"q 	c #484755",
"r 	c #50515F",
"s 	c #5F5C69",
"t 	c #65626E",
"u 	c #4A4754",
"v 	c #54505A",
"w 	c #827E8A",
"x 	c #8A8793",
"y 	c #75737F",
"z 	c #89888F",
"A 	c #B1B1B3",
"B 	c #A8A6AB",
"C 	c #8E8793",
"D 	c #6E6876",
"E 	c #2D2638",
"F 	c #42414E",
"G 	c #5A5B67",
"H 	c #727079",
"I 	c #64626C",
"J 	c #615F6A",
"K 	c #5D5C68",
"L 	c #575965",
"M 	c #535560",
"N 	c #6D6C74",
"O 	c #A9A9AB",
"P 	c #9E9CA2",
"Q 	c #7F7A86",
"R 	c #736D7B",
"S 	c #444052",
"T 	c #514E5A",
"U 	c #A7A6A7",
"V 	c #B5B6B7",
"W 	c #BFBFBE",
"X 	c #BCBCBC",
"Y 	c #A9A9AA",
"Z 	c #76767F",
"` 	c #77737F",
" .	c #6C6974",
"..	c #5E5E63",
"+.	c #9B9C9C",
"@.	c #B0AEB3",
"#.	c #726F7C",
"$.	c #7E7A8A",
"%.	c #5B5969",
"&.	c #363345",
"*.	c #848489",
"=.	c #CCCCCB",
"-.	c #C3C3C2",
";.	c #C4C4C3",
">.	c #8D8992",
",.	c #7E7885",
"'.	c #696771",
").	c #6B6D70",
"!.	c #ACADAD",
"~.	c #87828A",
"{.	c #1F1A24",
"].	c #4B4354",
"^.	c #6A6477",
"/.	c #474553",
"(.	c #A8A8AB",
"_.	c #A3A3A7",
":.	c #716E7A",
"<.	c #706D78",
"[.	c #61616A",
"}.	c #686B6F",
"|.	c #B3B4B4",
"1.	c #A5A4A8",
"2.	c #261F2C",
"3.	c #1C1622",
"4.	c #3C3643",
"5.	c #83818B",
"6.	c #85848E",
"7.	c #73707D",
"8.	c #63636E",
"9.	c #555963",
"0.	c #64676D",
"a.	c #C6C7C6",
"b.	c #A2A1A5",
"c.	c #615C66",
"d.	c #625E6B",
"e.	c #B7B6BA",
"f.	c #B5B4B8",
"g.	c #504E57",
"h.	c #474050",
"i.	c #6D637B",
"j.	c #5F5F6C",
"k.	c #60656B",
"l.	c #BABABA",
"m.	c #C6C6C6",
"n.	c #C2C2C3",
"o.	c #C2C2C1",
"p.	c #B6B6B9",
"q.	c #302A35",
"r.	c #100C13",
"s.	c #2E2733",
"t.	c #3A3642",
"u.	c #6E7077",
"v.	c #8A878D",
"w.	c #26212B",
"x.	c #1C1620",
"y.	c #292530",
"z.	c #8F8F95",
"A.	c #B0AFB2",
"B.	c #8B898F",
"C.	c #949499",
"D.	c #BBBCBD",
"            . + @ # $   % & .   ",
"          * = - ; > , ' ) ! = ~ ",
"        ~ { ] ^ / ( _ : < [ } & ",
"      | 1 2 3 4 5 6 7 8 9 0 a . ",
"    | b c d e f g h i j k l m n ",
"  ~ + o p q r s t u v w x y z A ",
"~ & B C D E F G H I J K L M N O ",
". P Q R S T U V W X Y Z `  ...+.",
"@.#.$.%.&.*.=.-.. % ;.>.,.'.).!.",
"~.{.].^./.(.&     & _.:.<.[.}.|.",
"1.2.3.4.5.= .   . = 6.7.8.9.0.b ",
"a.b.c.d.e.-.    -.f.g.h.i.j.k.l.",
"  ' m.n.o.      + p.q.r.s.t.u.= ",
"    . .           m.v.w.x.y.z.& ",
"                    m.A.B.C.D.. "};
